<?xml version="1.0" encoding="UTF-8" standalone="no"?>
<!-- Uploaded to: SVG Repo, www.svgrepo.com, Generator: SVG Repo Mixer Tools -->

<svg
   width="800px"
   height="800px"
   viewBox="0 0 16 16"
   version="1.1"
   id="svg2"
   sodipodi:docname="battery-level-100.svg"
   inkscape:version="1.4.2 (f4327f4, 2025-05-13)"
   xmlns:inkscape="http://www.inkscape.org/namespaces/inkscape"
   xmlns:sodipodi="http://sodipodi.sourceforge.net/DTD/sodipodi-0.dtd"
   xmlns="http://www.w3.org/2000/svg"
   xmlns:svg="http://www.w3.org/2000/svg">
  <defs
     id="defs2" />
  <sodipodi:namedview
     id="namedview2"
     pagecolor="#ffffff"
     bordercolor="#000000"
     borderopacity="0.25"
     inkscape:showpageshadow="2"
     inkscape:pageopacity="0.0"
     inkscape:pagecheckerboard="0"
     inkscape:deskcolor="#d1d1d1"
     inkscape:zoom="1.06875"
     inkscape:cx="400"
     inkscape:cy="400"
     inkscape:window-width="1920"
     inkscape:window-height="1057"
     inkscape:window-x="-8"
     inkscape:window-y="-8"
     inkscape:window-maximized="1"
     inkscape:current-layer="svg2" />
  <path
     class="success"
     d="M 5,4.5403509 V 13 H 8 V 11.791479 C 8,11.149452 8.210938,10.53575 8.585938,10.082555 L 11,7.1651081 V 4.5403509 Z m 0,0"
     fill="#33d17a"
     id="path1"
     style="stroke-width:1.09933;fill:#33d10a;fill-opacity:1" />
  <path
     d="m 7 0 c -1 0 -1 1 -1 1 v 1 h -1 s -0.707031 -0.015625 -1.449219 0.355469 c -0.738281 0.371093 -1.550781 1.3125 -1.550781 2.644531 v 8 s -0.015625 0.707031 0.355469 1.445312 c 0.371093 0.742188 1.3125 1.554688 2.644531 1.554688 h 5 v -2 h -5 c -0.554688 0 -1 -0.445312 -1 -1 v -8 c 0 -0.554688 0.445312 -1 1 -1 h 6 c 0.554688 0 1 0.445312 1 1 v 2 h 2 v -2 c 0 -1.332031 -0.8125 -2.273438 -1.550781 -2.644531 c -0.742188 -0.371094 -1.449219 -0.355469 -1.449219 -0.355469 h -1 v -1 c 0 -1 -1 -1 -1 -1 z m 6 8 v 0.007812 c -0.265625 -0.003906 -0.519531 0.101563 -0.707031 0.285157 l -3 3 c -0.1875 0.1875 -0.292969 0.441406 -0.292969 0.707031 v 1 h 3.132812 l -0.964843 1.445312 c -0.109375 0.164063 -0.164063 0.359376 -0.160157 0.554688 h -0.007812 v 1 h 1 v -0.003906 c 0.265625 0 0.519531 -0.101563 0.707031 -0.289063 l 3 -3 c 0.1875 -0.1875 0.289063 -0.441406 0.289063 -0.707031 h 0.003906 v -1 h -3.132812 l 0.964843 -1.445312 c 0.109375 -0.164063 0.167969 -0.359376 0.167969 -0.554688 v -1 z m 0 0"
     fill="#2e3434"
     id="path2" />
</svg>
