<?xml version="1.0" encoding="UTF-8" standalone="no"?>
<!-- Uploaded to: SVG Repo, www.svgrepo.com, Generator: SVG Repo Mixer Tools -->

<svg
   version="1.1"
   id="Uploaded to svgrepo.com"
   width="800px"
   height="800px"
   viewBox="0 0 32 32"
   xml:space="preserve"
   sodipodi:docname="switch-circle-off.svg"
   inkscape:version="1.4.2 (f4327f4, 2025-05-13)"
   xmlns:inkscape="http://www.inkscape.org/namespaces/inkscape"
   xmlns:sodipodi="http://sodipodi.sourceforge.net/DTD/sodipodi-0.dtd"
   xmlns="http://www.w3.org/2000/svg"
   xmlns:svg="http://www.w3.org/2000/svg"><defs
   id="defs1" /><sodipodi:namedview
   id="namedview1"
   pagecolor="#ffffff"
   bordercolor="#000000"
   borderopacity="0.25"
   inkscape:showpageshadow="2"
   inkscape:pageopacity="0.0"
   inkscape:pagecheckerboard="0"
   inkscape:deskcolor="#d1d1d1"
   inkscape:zoom="1.06875"
   inkscape:cx="400"
   inkscape:cy="400"
   inkscape:window-width="1920"
   inkscape:window-height="1057"
   inkscape:window-x="-8"
   inkscape:window-y="-8"
   inkscape:window-maximized="1"
   inkscape:current-layer="Uploaded to svgrepo.com" />
<style
   type="text/css"
   id="style1">
	.puchipuchi_een{fill:#111918;}
</style>
<path
   class="puchipuchi_een"
   d="M30,17c0,7.72-6.28,14-14,14S2,24.72,2,17C2,10.311,6.718,4.71,13,3.332v4.129  C8.948,8.739,6,12.531,6,17c0,5.514,4.486,10,10,10s10-4.486,10-10c0-4.469-2.948-8.261-7-9.539V3.332C25.282,4.71,30,10.311,30,17z   M16,13c1.104,0,2-0.896,2-2V3c0-1.104-0.896-2-2-2s-2,0.896-2,2v8C14,12.104,14.896,13,16,13z"
   id="path1"
   style="fill:#451918;fill-opacity:1" />
</svg>
