<?xml version="1.0" encoding="UTF-8" standalone="no"?>
<!-- Uploaded to: SVG Repo, www.svgrepo.com, Generator: SVG Repo Mixer Tools -->

<svg
   version="1.1"
   id="Uploaded to svgrepo.com"
   width="800px"
   height="800px"
   viewBox="0 0 32 32"
   xml:space="preserve"
   sodipodi:docname="switch-circle-on.svg"
   inkscape:version="1.4.2 (f4327f4, 2025-05-13)"
   xmlns:inkscape="http://www.inkscape.org/namespaces/inkscape"
   xmlns:sodipodi="http://sodipodi.sourceforge.net/DTD/sodipodi-0.dtd"
   xmlns="http://www.w3.org/2000/svg"
   xmlns:svg="http://www.w3.org/2000/svg"><defs
   id="defs1" /><sodipodi:namedview
   id="namedview1"
   pagecolor="#ffffff"
   bordercolor="#000000"
   borderopacity="0.25"
   inkscape:showpageshadow="2"
   inkscape:pageopacity="0.0"
   inkscape:pagecheckerboard="0"
   inkscape:deskcolor="#d1d1d1"
   inkscape:zoom="1.06875"
   inkscape:cx="400"
   inkscape:cy="400"
   inkscape:window-width="1920"
   inkscape:window-height="1057"
   inkscape:window-x="-8"
   inkscape:window-y="-8"
   inkscape:window-maximized="1"
   inkscape:current-layer="Uploaded to svgrepo.com" />
<style
   type="text/css"
   id="style1">
	.blueprint_een{fill:#111918;}
</style>
<path
   class="blueprint_een"
   d="M18.918,2.302C18.603,0.983,17.414,0,16,0s-2.603,0.983-2.918,2.302C6.141,3.676,1,9.859,1,17  c0,8.271,6.729,15,15,15s15-6.729,15-15C31,9.859,25.859,3.676,18.918,2.302z M15,3c0-0.551,0.449-1,1-1s1,0.449,1,1v7  c0,0.551-0.449,1-1,1s-1-0.449-1-1V3z M16,12c1.105,0,2-0.895,2-2V7.204c4.564,0.927,8,4.958,8,9.796c0,5.523-4.477,10-10,10  c-5.523,0-10-4.477-10-10c0-4.838,3.436-8.869,8-9.796V10C14,11.105,14.895,12,16,12z M16,30C8.832,30,3,24.168,3,17  C3,10.633,7.72,5.149,14,4.176V6.19C8.887,7.133,5,11.618,5,17c0,6.065,4.935,11,11,11s11-4.935,11-11c0-5.382-3.887-9.867-9-10.81  V4.176C24.28,5.149,29,10.633,29,17C29,24.168,23.168,30,16,30z"
   id="path1"
   style="stroke:#008ed2;stroke-opacity:1" />
</svg>
