<?xml version="1.0" encoding="UTF-8" standalone="no"?>
<!-- Uploaded to: SVG Repo, www.svgrepo.com, Generator: SVG Repo Mixer Tools -->

<svg
   fill="#000000"
   width="700"
   height="700.00134"
   viewBox="0 0 21 21.00004"
   version="1.1"
   id="svg2"
   sodipodi:docname="ventilador-a02_on.svg"
   inkscape:version="1.4.2 (f4327f4, 2025-05-13)"
   xmlns:inkscape="http://www.inkscape.org/namespaces/inkscape"
   xmlns:sodipodi="http://sodipodi.sourceforge.net/DTD/sodipodi-0.dtd"
   xmlns="http://www.w3.org/2000/svg"
   xmlns:svg="http://www.w3.org/2000/svg">
  <defs
     id="defs2" />
  <sodipodi:namedview
     id="namedview2"
     pagecolor="#ffffff"
     bordercolor="#000000"
     borderopacity="0.25"
     inkscape:showpageshadow="2"
     inkscape:pageopacity="0.0"
     inkscape:pagecheckerboard="0"
     inkscape:deskcolor="#d1d1d1"
     inkscape:zoom="1.06875"
     inkscape:cx="350.40936"
     inkscape:cy="350.40936"
     inkscape:window-width="1920"
     inkscape:window-height="1057"
     inkscape:window-x="-8"
     inkscape:window-y="-8"
     inkscape:window-maximized="1"
     inkscape:current-layer="svg2" />
  <path
     fill-rule="evenodd"
     clip-rule="evenodd"
     d="m 10.5,1.98148 c -4.70465,0 -8.51852,3.81387 -8.51852,8.51856 0,4.7046 3.81387,8.5185 8.51852,8.5185 4.7046,0 8.5185,-3.8139 8.5185,-8.5185 0,-4.70469 -3.8139,-8.51856 -8.5185,-8.51856 z m -10,8.51856 C 0.5,4.97715 4.97715,0.5 10.5,0.5 c 5.5228,0 10,4.47715 10,10.00004 0,5.5228 -4.4772,10 -10,10 -5.52285,0 -10,-4.4772 -10,-10 z"
     id="path1"
     style="stroke:#2936d3;stroke-opacity:1" />
  <path
     d="m 10.5,9.79994 c -0.1384,0 -0.2738,0.0411 -0.3889,0.118 -0.1151,0.0769 -0.2048,0.1862 -0.2578,0.3141 -0.053,0.1279 -0.0669,0.2687 -0.0399,0.4045 0.0271,0.1358 0.0937,0.2605 0.1916,0.3584 0.0979,0.0979 0.2227,0.1646 0.3584,0.1916 0.1358,0.027 0.2766,0.0131 0.4045,-0.0399 0.1279,-0.053 0.2372,-0.1427 0.3141,-0.2578 0.0769,-0.1151 0.118,-0.2504 0.118,-0.3889 0,-0.1856 -0.0738,-0.3637 -0.205,-0.495 -0.1313,-0.1312 -0.3093,-0.205 -0.495,-0.205 z m 0.35,-6.29998 c 3.15,0 3.22,2.499 1.561,3.325 -0.3082,0.18276 -0.5707,0.43354 -0.7672,0.7332 -0.1965,0.29965 -0.322,0.64025 -0.3668,0.99578 0.3347,0.1389 0.6303,0.3576 0.861,0.637 2.562,-1.39998 5.362,-0.84699 5.362,1.659 0,3.15 -2.506,3.22 -3.325,1.561 -0.1881,-0.3081 -0.443,-0.57 -0.7459,-0.7662 -0.3029,-0.1963 -0.6461,-0.322 -1.0041,-0.3678 -0.1406,0.3338 -0.359,0.629 -0.637,0.861 1.4,2.583 0.84,5.362 -1.666,5.362 -3.122,0 -3.199,-2.506 -1.54,-3.332 0.3032,-0.1852 0.562,-0.4348 0.758,-0.7312 0.196,-0.2964 0.3244,-0.6322 0.376,-0.9838 -0.3431,-0.1342 -0.6449,-0.3563 -0.875,-0.644 -2.583,1.386 -5.341,0.84 -5.341,-1.659 0,-3.14998 2.478,-3.22698 3.304,-1.568 0.18545,0.3068 0.43799,0.5676 0.73865,0.7628 0.30067,0.1951 0.64166,0.3197 0.99735,0.3642 0.1348,-0.3369 0.3571,-0.6318 0.644,-0.854 C 7.791,6.29995 8.344,3.49996 10.836,3.49996 Z"
     id="path2"
     style="fill:#5d66da;fill-opacity:1;stroke:#2936d3;stroke-opacity:1" />
</svg>
