<?xml version="1.0" encoding="UTF-8" standalone="no"?>
<!-- Uploaded to: SVG Repo, www.svgrepo.com, Generator: SVG Repo Mixer Tools -->

<svg
   fill="#000000"
   width="666.66669"
   height="666.66803"
   viewBox="0 0 20.000001 20.000041"
   version="1.1"
   id="svg2"
   sodipodi:docname="ventilador-a02_off.svg"
   inkscape:version="1.4.2 (f4327f4, 2025-05-13)"
   xmlns:inkscape="http://www.inkscape.org/namespaces/inkscape"
   xmlns:sodipodi="http://sodipodi.sourceforge.net/DTD/sodipodi-0.dtd"
   xmlns="http://www.w3.org/2000/svg"
   xmlns:svg="http://www.w3.org/2000/svg">
  <defs
     id="defs2" />
  <sodipodi:namedview
     id="namedview2"
     pagecolor="#ffffff"
     bordercolor="#000000"
     borderopacity="0.25"
     inkscape:showpageshadow="2"
     inkscape:pageopacity="0.0"
     inkscape:pagecheckerboard="0"
     inkscape:deskcolor="#d1d1d1"
     inkscape:zoom="1.06875"
     inkscape:cx="333.56725"
     inkscape:cy="333.56725"
     inkscape:window-width="1920"
     inkscape:window-height="1057"
     inkscape:window-x="-8"
     inkscape:window-y="-8"
     inkscape:window-maximized="1"
     inkscape:current-layer="svg2" />
  <g
     id="g1"
     transform="translate(-2,-2.00006)">
    <path
       fill-rule="evenodd"
       clip-rule="evenodd"
       d="m 12,3.48154 c -4.70465,0 -8.51852,3.81387 -8.51852,8.51856 0,4.7046 3.81387,8.5185 8.51852,8.5185 4.7046,0 8.5185,-3.8139 8.5185,-8.5185 C 20.5185,7.29541 16.7046,3.48154 12,3.48154 Z M 2,12.0001 C 2,6.47721 6.47715,2.00006 12,2.00006 c 5.5228,0 10,4.47715 10,10.00004 0,5.5228 -4.4772,10 -10,10 -5.52285,0 -10,-4.4772 -10,-10 z"
       id="path1" />
    <path
       d="m 12,11.3 c -0.1384,0 -0.2738,0.0411 -0.3889,0.118 -0.1151,0.0769 -0.2048,0.1862 -0.2578,0.3141 -0.053,0.1279 -0.0669,0.2687 -0.0399,0.4045 0.0271,0.1358 0.0937,0.2605 0.1916,0.3584 0.0979,0.0979 0.2227,0.1646 0.3584,0.1916 0.1358,0.027 0.2766,0.0131 0.4045,-0.0399 0.1279,-0.053 0.2372,-0.1427 0.3141,-0.2578 C 12.6589,12.2738 12.7,12.1385 12.7,12 12.7,11.8144 12.6262,11.6363 12.495,11.505 12.3637,11.3738 12.1857,11.3 12,11.3 Z m 0.35,-6.29998 c 3.15,0 3.22,2.499 1.561,3.325 -0.3082,0.18276 -0.5707,0.43354 -0.7672,0.7332 -0.1965,0.29965 -0.322,0.64025 -0.3668,0.99578 0.3347,0.1389 0.6303,0.3576 0.861,0.637 C 16.2,9.29102 19,9.84401 19,12.35 c 0,3.15 -2.506,3.22 -3.325,1.561 -0.1881,-0.3081 -0.443,-0.57 -0.7459,-0.7662 -0.3029,-0.1963 -0.6461,-0.322 -1.0041,-0.3678 -0.1406,0.3338 -0.359,0.629 -0.637,0.861 1.4,2.583 0.84,5.362 -1.666,5.362 -3.122,0 -3.199,-2.506 -1.54,-3.332 0.3032,-0.1852 0.562,-0.4348 0.758,-0.7312 0.196,-0.2964 0.3244,-0.6322 0.376,-0.9838 C 10.8729,13.8188 10.5711,13.5967 10.341,13.309 7.758,14.695 5,14.149 5,11.65 5,8.50002 7.478,8.42302 8.304,10.082 c 0.18545,0.3068 0.43799,0.5676 0.73865,0.7628 0.30067,0.1951 0.64166,0.3197 0.99735,0.3642 0.1348,-0.3369 0.3571,-0.6318 0.644,-0.854 C 9.291,7.80001 9.844,5.00002 12.336,5.00002 Z"
       id="path2" />
  </g>
</svg>
