<?xml version="1.0" encoding="UTF-8" standalone="no"?>
<!-- Created with Inkscape (http://www.inkscape.org/) -->

<svg
   width="210mm"
   height="297mm"
   viewBox="0 0 210 297"
   version="1.1"
   id="svg1"
   xml:space="preserve"
   inkscape:version="1.4.2 (f4327f4, 2025-05-13)"
   sodipodi:docname="canpallars-08.svg"
   xmlns:inkscape="http://www.inkscape.org/namespaces/inkscape"
   xmlns:sodipodi="http://sodipodi.sourceforge.net/DTD/sodipodi-0.dtd"
   xmlns:xlink="http://www.w3.org/1999/xlink"
   xmlns="http://www.w3.org/2000/svg"
   xmlns:svg="http://www.w3.org/2000/svg"><sodipodi:namedview
     id="namedview1"
     pagecolor="#ffffff"
     bordercolor="#000000"
     borderopacity="0.25"
     inkscape:showpageshadow="2"
     inkscape:pageopacity="0.0"
     inkscape:pagecheckerboard="0"
     inkscape:deskcolor="#d1d1d1"
     inkscape:document-units="mm"
     inkscape:zoom="2.1543544"
     inkscape:cx="444.21661"
     inkscape:cy="255.99317"
     inkscape:window-width="1920"
     inkscape:window-height="1057"
     inkscape:window-x="-8"
     inkscape:window-y="-8"
     inkscape:window-maximized="1"
     inkscape:current-layer="layer1" /><defs
     id="defs1"><radialGradient
       inkscape:collect="always"
       xlink:href="#linearGradient3167"
       id="radialGradient3207-8-1-8"
       gradientUnits="userSpaceOnUse"
       gradientTransform="matrix(0.9439655,0,0,1.1768095,-173.64654,58.734691)"
       cx="100"
       cy="65.093796"
       fx="100"
       fy="65.093796"
       r="46.963562" /><linearGradient
       id="linearGradient3167"><stop
         style="stop-color:#fffc9f;stop-opacity:1;"
         offset="0"
         id="stop3169" /><stop
         id="stop3205"
         offset="0.5"
         style="stop-color:#fff500;stop-opacity:1;" /><stop
         style="stop-color:#ff9300;stop-opacity:1;"
         offset="1"
         id="stop3171" /></linearGradient><filter
       style="color-interpolation-filters:sRGB"
       inkscape:label="Greyscale"
       id="filter4563-8-7-1"
       x="0"
       y="0"
       width="1"
       height="1"><feColorMatrix
         values="0.21 0.72 0.072 0 0 0.21 0.72 0.072 0 0 0.21 0.72 0.072 0 0 0 0 0 1 0 "
         id="feColorMatrix4561-5-6-3" /></filter><linearGradient
       inkscape:collect="always"
       xlink:href="#linearGradient3211"
       id="linearGradient3217-1-5"
       x1="198.58299"
       y1="23.32316"
       x2="198.58299"
       y2="63.165371"
       gradientUnits="userSpaceOnUse"
       gradientTransform="matrix(1.0864864,0,0,1.0263158,-294.60288,62.611331)" /><linearGradient
       inkscape:collect="always"
       id="linearGradient3211"><stop
         style="stop-color:#ffffff;stop-opacity:1;"
         offset="0"
         id="stop3213" /><stop
         style="stop-color:#ffffff;stop-opacity:0;"
         offset="1"
         id="stop3215" /></linearGradient><filter
       style="color-interpolation-filters:sRGB"
       inkscape:label="Greyscale"
       id="filter4567-20-2-4"
       x="0"
       y="0"
       width="1"
       height="1"><feColorMatrix
         values="0.21 0.72 0.072 0 0 0.21 0.72 0.072 0 0 0.21 0.72 0.072 0 0 0 0 0 1 0 "
         id="feColorMatrix4565-1-7-0" /></filter><linearGradient
       inkscape:collect="always"
       xlink:href="#linearGradient3211"
       id="linearGradient3221-9-7"
       gradientUnits="userSpaceOnUse"
       x1="203.13518"
       y1="3.3468275"
       x2="203.08333"
       y2="39.433189"
       gradientTransform="matrix(0.8864864,0,0,0.7894737,-130.89942,-103.65438)" /><filter
       style="color-interpolation-filters:sRGB"
       inkscape:label="Greyscale"
       id="filter4571-4-5-6"
       x="0"
       y="0"
       width="1"
       height="1"><feColorMatrix
         values="0.21 0.72 0.072 0 0 0.21 0.72 0.072 0 0 0.21 0.72 0.072 0 0 0 0 0 1 0 "
         id="feColorMatrix4569-8-4-3" /></filter><linearGradient
       inkscape:collect="always"
       xlink:href="#linearGradient3239"
       id="linearGradient3245-3-6"
       x1="147.52083"
       y1="139.27126"
       x2="226.16341"
       y2="139.27126"
       gradientUnits="userSpaceOnUse"
       gradientTransform="translate(-267.68724,64.710202)" /><linearGradient
       id="linearGradient3239"><stop
         style="stop-color:#000000;stop-opacity:1;"
         offset="0"
         id="stop3241" /><stop
         id="stop3247"
         offset="0.5"
         style="stop-color:#ffffff;stop-opacity:1;" /><stop
         style="stop-color:#000000;stop-opacity:1;"
         offset="1"
         id="stop3243" /></linearGradient><filter
       style="color-interpolation-filters:sRGB"
       inkscape:label="Greyscale"
       id="filter4575-0-3-2"
       x="0"
       y="0"
       width="1"
       height="1"><feColorMatrix
         values="0.21 0.72 0.072 0 0 0.21 0.72 0.072 0 0 0.21 0.72 0.072 0 0 0 0 0 1 0 "
         id="feColorMatrix4573-2-4-0" /></filter><filter
       style="color-interpolation-filters:sRGB"
       inkscape:label="Greyscale"
       id="filter4579-4-1-9"
       x="0"
       y="0"
       width="1"
       height="1"><feColorMatrix
         values="0.21 0.72 0.072 0 0 0.21 0.72 0.072 0 0 0.21 0.72 0.072 0 0 0 0 0 1 0 "
         id="feColorMatrix4577-6-1-7" /></filter><filter
       style="color-interpolation-filters:sRGB"
       inkscape:label="Greyscale"
       id="filter4583-7-3-3"
       x="0"
       y="0"
       width="1"
       height="1"><feColorMatrix
         values="0.21 0.72 0.072 0 0 0.21 0.72 0.072 0 0 0.21 0.72 0.072 0 0 0 0 0 1 0 "
         id="feColorMatrix4581-5-8-7" /></filter><filter
       style="color-interpolation-filters:sRGB"
       inkscape:label="Greyscale"
       id="filter4587-5-7-2"
       x="0"
       y="0"
       width="1"
       height="1"><feColorMatrix
         values="0.21 0.72 0.072 0 0 0.21 0.72 0.072 0 0 0.21 0.72 0.072 0 0 0 0 0 1 0 "
         id="feColorMatrix4585-6-4-6" /></filter><filter
       style="color-interpolation-filters:sRGB"
       inkscape:label="Greyscale"
       id="filter4591-8-2-0"
       x="0"
       y="0"
       width="1"
       height="1"><feColorMatrix
         values="0.21 0.72 0.072 0 0 0.21 0.72 0.072 0 0 0.21 0.72 0.072 0 0 0 0 0 1 0 "
         id="feColorMatrix4589-1-7-1" /></filter><filter
       style="color-interpolation-filters:sRGB"
       inkscape:label="Greyscale"
       id="filter4595-5-7-6"
       x="0"
       y="0"
       width="1"
       height="1"><feColorMatrix
         values="0.21 0.72 0.072 0 0 0.21 0.72 0.072 0 0 0.21 0.72 0.072 0 0 0 0 0 1 0 "
         id="feColorMatrix4593-9-9-5" /></filter><linearGradient
       inkscape:collect="always"
       xlink:href="#linearGradient3180"
       id="linearGradient3190-3-7"
       gradientUnits="userSpaceOnUse"
       x1="109.95509"
       y1="117.62206"
       x2="109.9551"
       y2="38.779655"
       gradientTransform="matrix(0.96,0,0,0.7,-187.76836,56.035595)" /><linearGradient
       id="linearGradient3180"><stop
         style="stop-color:#ffffff;stop-opacity:0;"
         offset="0"
         id="stop3182" /><stop
         style="stop-color:#ffffff;stop-opacity:1;"
         offset="1"
         id="stop3184" /></linearGradient><filter
       style="color-interpolation-filters:sRGB"
       inkscape:label="Greyscale"
       id="filter4599-0-8-1"
       x="0"
       y="0"
       width="1"
       height="1"><feColorMatrix
         values="0.21 0.72 0.072 0 0 0.21 0.72 0.072 0 0 0.21 0.72 0.072 0 0 0 0 0 1 0 "
         id="feColorMatrix4597-5-6-2" /></filter><filter
       style="color-interpolation-filters:sRGB"
       inkscape:label="Greyscale"
       id="filter4603-1-5-0"
       x="0"
       y="0"
       width="1"
       height="1"><feColorMatrix
         values="0.21 0.72 0.072 0 0 0.21 0.72 0.072 0 0 0.21 0.72 0.072 0 0 0 0 0 1 0 "
         id="feColorMatrix4601-6-0-0" /></filter><linearGradient
       inkscape:collect="always"
       xlink:href="#linearGradient3210"
       id="linearGradient3216-2-1"
       x1="87.095451"
       y1="107.09915"
       x2="116.08683"
       y2="107.09915"
       gradientUnits="userSpaceOnUse"
       gradientTransform="translate(-181.68724,52.710202)" /><linearGradient
       id="linearGradient3210"><stop
         style="stop-color:#ffdc00;stop-opacity:1;"
         offset="0"
         id="stop3212" /><stop
         id="stop3218"
         offset="0.5"
         style="stop-color:#ecd128;stop-opacity:0;" /><stop
         style="stop-color:#ffdc00;stop-opacity:1;"
         offset="1"
         id="stop3214" /></linearGradient><filter
       style="color-interpolation-filters:sRGB"
       inkscape:label="Greyscale"
       id="filter4607-3-2-7"
       x="0"
       y="0"
       width="1"
       height="1"><feColorMatrix
         values="0.21 0.72 0.072 0 0 0.21 0.72 0.072 0 0 0.21 0.72 0.072 0 0 0 0 0 1 0 "
         id="feColorMatrix4605-7-4-1" /></filter><filter
       style="color-interpolation-filters:sRGB"
       inkscape:label="Greyscale"
       id="filter4611-94-8-7"
       x="0"
       y="0"
       width="1"
       height="1"><feColorMatrix
         values="0.21 0.72 0.072 0 0 0.21 0.72 0.072 0 0 0.21 0.72 0.072 0 0 0 0 0 1 0 "
         id="feColorMatrix4609-2-6-7" /></filter><filter
       style="color-interpolation-filters:sRGB"
       inkscape:label="Greyscale"
       id="filter4615-9-5-7"
       x="0"
       y="0"
       width="1"
       height="1"><feColorMatrix
         values="0.21 0.72 0.072 0 0 0.21 0.72 0.072 0 0 0.21 0.72 0.072 0 0 0 0 0 1 0 "
         id="feColorMatrix4613-7-0-7" /></filter><filter
       style="color-interpolation-filters:sRGB"
       inkscape:label="Greyscale"
       id="filter4619-6-9-3"
       x="0"
       y="0"
       width="1"
       height="1"><feColorMatrix
         values="0.21 0.72 0.072 0 0 0.21 0.72 0.072 0 0 0.21 0.72 0.072 0 0 0 0 0 1 0 "
         id="feColorMatrix4617-7-0-3" /></filter><radialGradient
       inkscape:collect="always"
       xlink:href="#linearGradient3167"
       id="radialGradient3207-8-1-8-6"
       gradientUnits="userSpaceOnUse"
       gradientTransform="matrix(0.9439655,0,0,1.1768095,-173.64654,58.734691)"
       cx="100"
       cy="65.093796"
       fx="100"
       fy="65.093796"
       r="46.963562" /><filter
       style="color-interpolation-filters:sRGB"
       inkscape:label="Greyscale"
       id="filter4563-8-7-1-8"
       x="0"
       y="0"
       width="1"
       height="1"><feColorMatrix
         values="0.21 0.72 0.072 0 0 0.21 0.72 0.072 0 0 0.21 0.72 0.072 0 0 0 0 0 1 0 "
         id="feColorMatrix4561-5-6-3-4" /></filter><linearGradient
       inkscape:collect="always"
       xlink:href="#linearGradient3211"
       id="linearGradient3217-1-5-1"
       x1="198.58299"
       y1="23.32316"
       x2="198.58299"
       y2="63.165371"
       gradientUnits="userSpaceOnUse"
       gradientTransform="matrix(1.0864864,0,0,1.0263158,-294.60288,62.611331)" /><filter
       style="color-interpolation-filters:sRGB"
       inkscape:label="Greyscale"
       id="filter4567-20-2-4-9"
       x="0"
       y="0"
       width="1"
       height="1"><feColorMatrix
         values="0.21 0.72 0.072 0 0 0.21 0.72 0.072 0 0 0.21 0.72 0.072 0 0 0 0 0 1 0 "
         id="feColorMatrix4565-1-7-0-8" /></filter><linearGradient
       inkscape:collect="always"
       xlink:href="#linearGradient3211"
       id="linearGradient3221-9-7-8"
       gradientUnits="userSpaceOnUse"
       x1="203.13518"
       y1="3.3468275"
       x2="203.08333"
       y2="39.433189"
       gradientTransform="matrix(0.8864864,0,0,0.7894737,-130.89942,-103.65438)" /><filter
       style="color-interpolation-filters:sRGB"
       inkscape:label="Greyscale"
       id="filter4571-4-5-6-0"
       x="0"
       y="0"
       width="1"
       height="1"><feColorMatrix
         values="0.21 0.72 0.072 0 0 0.21 0.72 0.072 0 0 0.21 0.72 0.072 0 0 0 0 0 1 0 "
         id="feColorMatrix4569-8-4-3-8" /></filter><linearGradient
       inkscape:collect="always"
       xlink:href="#linearGradient3239"
       id="linearGradient3245-3-6-7"
       x1="147.52083"
       y1="139.27126"
       x2="226.16341"
       y2="139.27126"
       gradientUnits="userSpaceOnUse"
       gradientTransform="translate(-267.68724,64.710202)" /><filter
       style="color-interpolation-filters:sRGB"
       inkscape:label="Greyscale"
       id="filter4575-0-3-2-8"
       x="0"
       y="0"
       width="1"
       height="1"><feColorMatrix
         values="0.21 0.72 0.072 0 0 0.21 0.72 0.072 0 0 0.21 0.72 0.072 0 0 0 0 0 1 0 "
         id="feColorMatrix4573-2-4-0-3" /></filter><filter
       style="color-interpolation-filters:sRGB"
       inkscape:label="Greyscale"
       id="filter4579-4-1-9-7"
       x="0"
       y="0"
       width="1"
       height="1"><feColorMatrix
         values="0.21 0.72 0.072 0 0 0.21 0.72 0.072 0 0 0.21 0.72 0.072 0 0 0 0 0 1 0 "
         id="feColorMatrix4577-6-1-7-1" /></filter><filter
       style="color-interpolation-filters:sRGB"
       inkscape:label="Greyscale"
       id="filter4583-7-3-3-0"
       x="0"
       y="0"
       width="1"
       height="1"><feColorMatrix
         values="0.21 0.72 0.072 0 0 0.21 0.72 0.072 0 0 0.21 0.72 0.072 0 0 0 0 0 1 0 "
         id="feColorMatrix4581-5-8-7-7" /></filter><filter
       style="color-interpolation-filters:sRGB"
       inkscape:label="Greyscale"
       id="filter4587-5-7-2-3"
       x="0"
       y="0"
       width="1"
       height="1"><feColorMatrix
         values="0.21 0.72 0.072 0 0 0.21 0.72 0.072 0 0 0.21 0.72 0.072 0 0 0 0 0 1 0 "
         id="feColorMatrix4585-6-4-6-4" /></filter><filter
       style="color-interpolation-filters:sRGB"
       inkscape:label="Greyscale"
       id="filter4591-8-2-0-9"
       x="0"
       y="0"
       width="1"
       height="1"><feColorMatrix
         values="0.21 0.72 0.072 0 0 0.21 0.72 0.072 0 0 0.21 0.72 0.072 0 0 0 0 0 1 0 "
         id="feColorMatrix4589-1-7-1-6" /></filter><filter
       style="color-interpolation-filters:sRGB"
       inkscape:label="Greyscale"
       id="filter4595-5-7-6-5"
       x="0"
       y="0"
       width="1"
       height="1"><feColorMatrix
         values="0.21 0.72 0.072 0 0 0.21 0.72 0.072 0 0 0.21 0.72 0.072 0 0 0 0 0 1 0 "
         id="feColorMatrix4593-9-9-5-1" /></filter><linearGradient
       inkscape:collect="always"
       xlink:href="#linearGradient3180"
       id="linearGradient3190-3-7-0"
       gradientUnits="userSpaceOnUse"
       x1="109.95509"
       y1="117.62206"
       x2="109.9551"
       y2="38.779655"
       gradientTransform="matrix(0.96,0,0,0.7,-187.76836,56.035595)" /><filter
       style="color-interpolation-filters:sRGB"
       inkscape:label="Greyscale"
       id="filter4599-0-8-1-6"
       x="0"
       y="0"
       width="1"
       height="1"><feColorMatrix
         values="0.21 0.72 0.072 0 0 0.21 0.72 0.072 0 0 0.21 0.72 0.072 0 0 0 0 0 1 0 "
         id="feColorMatrix4597-5-6-2-8" /></filter><filter
       style="color-interpolation-filters:sRGB"
       inkscape:label="Greyscale"
       id="filter4603-1-5-0-3"
       x="0"
       y="0"
       width="1"
       height="1"><feColorMatrix
         values="0.21 0.72 0.072 0 0 0.21 0.72 0.072 0 0 0.21 0.72 0.072 0 0 0 0 0 1 0 "
         id="feColorMatrix4601-6-0-0-4" /></filter><linearGradient
       inkscape:collect="always"
       xlink:href="#linearGradient3210"
       id="linearGradient3216-2-1-8"
       x1="87.095451"
       y1="107.09915"
       x2="116.08683"
       y2="107.09915"
       gradientUnits="userSpaceOnUse"
       gradientTransform="translate(-181.68724,52.710202)" /><filter
       style="color-interpolation-filters:sRGB"
       inkscape:label="Greyscale"
       id="filter4607-3-2-7-2"
       x="0"
       y="0"
       width="1"
       height="1"><feColorMatrix
         values="0.21 0.72 0.072 0 0 0.21 0.72 0.072 0 0 0.21 0.72 0.072 0 0 0 0 0 1 0 "
         id="feColorMatrix4605-7-4-1-5" /></filter><filter
       style="color-interpolation-filters:sRGB"
       inkscape:label="Greyscale"
       id="filter4611-94-8-7-5"
       x="0"
       y="0"
       width="1"
       height="1"><feColorMatrix
         values="0.21 0.72 0.072 0 0 0.21 0.72 0.072 0 0 0.21 0.72 0.072 0 0 0 0 0 1 0 "
         id="feColorMatrix4609-2-6-7-3" /></filter><filter
       style="color-interpolation-filters:sRGB"
       inkscape:label="Greyscale"
       id="filter4615-9-5-7-3"
       x="0"
       y="0"
       width="1"
       height="1"><feColorMatrix
         values="0.21 0.72 0.072 0 0 0.21 0.72 0.072 0 0 0.21 0.72 0.072 0 0 0 0 0 1 0 "
         id="feColorMatrix4613-7-0-7-3" /></filter><filter
       style="color-interpolation-filters:sRGB"
       inkscape:label="Greyscale"
       id="filter4619-6-9-3-7"
       x="0"
       y="0"
       width="1"
       height="1"><feColorMatrix
         values="0.21 0.72 0.072 0 0 0.21 0.72 0.072 0 0 0.21 0.72 0.072 0 0 0 0 0 1 0 "
         id="feColorMatrix4617-7-0-3-4" /></filter></defs><g
     inkscape:label="Capa 1"
     inkscape:groupmode="layer"
     id="layer1"><image
       width="137.84792"
       height="296.59793"
       preserveAspectRatio="none"
       style="image-rendering:optimizeQuality"
       xlink:href="canpallars-01.png"
       id="image1"
       x="36.115627"
       y="0.13228455"
       inkscape:svg-dpi="96" /><g
       id="input_boolean.ventilador_despacho-1"
       inkscape:label="switch.alias_pinguino"
       transform="matrix(0.26458333,0,0,0.26458333,72.112317,24.368385)"><path
         inkscape:connector-curvature="0"
         id="path4-0-2"
         d="m 122.53459,104.36318 c -0.20993,-0.10585 -0.42131,-0.20884 -0.63005,-0.31705 -0.45385,-0.23737 -0.89763,-0.49392 -1.3312,-0.76653 -0.27002,-0.1696 -0.534,-0.34879 -0.79055,-0.53816 -0.7508,-0.55256 -1.45087,-1.17276 -2.101,-1.84047 -0.64121,-0.66005 -1.23474,-1.367379 -1.76227,-2.121688 -0.39365,-0.564143 -0.7506,-1.155306 -1.0454,-1.777305 -0.12972,-0.277598 -0.24832,-0.561097 -0.3402,-0.853637 -0.0372,-0.123453 -0.073,-0.248763 -0.0833,-0.377817 -0.0112,-0.220688 0.0632,-0.446461 0.21135,-0.611605 0.0843,-0.09411 0.18997,-0.170208 0.30798,-0.215957 0.15314,-0.05601 0.32077,-0.05098 0.47962,-0.02631 0.23413,0.03807 0.4592,0.117309 0.67855,0.205618 0.28685,0.116954 0.56452,0.255009 0.83928,0.397673 0.5895,0.308528 1.14997,0.67067 1.68294,1.068507 0.49143,0.36658 0.96191,0.760535 1.41997,1.167828 0.62252,0.559078 1.19364,1.174075 1.71949,1.824494 0.56055,0.695119 1.07029,1.431879 1.5143,2.206849 0.16963,0.29591 0.32805,0.59819 0.47618,0.90541 0.06,0.1226 0.12005,0.2452 0.18008,0.3678 -0.10404,0.0838 -0.20917,0.16634 -0.31273,0.25077 -0.15129,0.12907 -0.29543,0.26944 -0.43485,0.40884 -0.1362,0.13818 -0.27075,0.27627 -0.3938,0.42575 -0.0672,0.086 -0.13386,0.17251 -0.20087,0.25872 -0.0278,-0.0139 -0.0557,-0.0278 -0.0835,-0.0418 z"
         style="fill:#020000;fill-opacity:1;stroke-width:0.00227431" /><path
         inkscape:connector-curvature="0"
         id="path6-8-4"
         d="m 128.74974,104.33094 c -0.0798,-0.10213 -0.15664,-0.20688 -0.24433,-0.30258 -0.17127,-0.19029 -0.35362,-0.37317 -0.54103,-0.54905 -0.10027,-0.0941 -0.20392,-0.18472 -0.3126,-0.26907 -0.0623,-0.0498 -0.12463,-0.0996 -0.18694,-0.14943 0.1464,-0.29903 0.28867,-0.60023 0.446,-0.89375 0.67823,-1.27402 1.53493,-2.450753 2.52148,-3.503305 0.80052,-0.853216 1.68752,-1.62575 2.64567,-2.297324 0.44337,-0.308242 0.90373,-0.592238 1.37897,-0.848688 0.28845,-0.154288 0.58208,-0.300473 0.88755,-0.418264 0.14462,-0.05506 0.29348,-0.09986 0.4402,-0.14749 0.05,-0.01441 0.0982,-0.03739 0.15081,-0.04065 0.10695,-0.0095 0.21484,-0.0068 0.32167,0.0034 0.17628,0.01842 0.34969,0.09014 0.47659,0.215787 0.12739,0.123875 0.20221,0.294906 0.22423,0.469906 0.0196,0.141046 -0.005,0.28354 -0.037,0.420915 -0.0618,0.255717 -0.15703,0.501957 -0.26081,0.743222 -0.19179,0.439826 -0.42013,0.863093 -0.67011,1.272411 -0.19655,0.320791 -0.40945,0.631298 -0.62898,0.936733 -0.93927,1.302097 -2.05754,2.476877 -3.32465,3.463847 -0.85492,0.66659 -1.77715,1.24697 -2.74912,1.7272 -0.16011,0.0801 -0.32022,0.1602 -0.48033,0.24028 -0.019,-0.0246 -0.0381,-0.0492 -0.0572,-0.0738 z"
         style="fill:#020000;fill-opacity:1;stroke-width:0.00227431" /><path
         inkscape:connector-curvature="0"
         id="path8-4-2"
         d="m 125.70362,109.48795 c -0.58123,-6.8e-4 -1.16531,-0.14834 -1.6664,-0.44564 -0.29772,-0.17584 -0.56386,-0.40214 -0.79588,-0.65787 -0.17856,-0.19349 -0.33985,-0.40452 -0.46426,-0.63712 -0.12281,-0.22692 -0.2124,-0.46981 -0.2945,-0.71384 -0.0411,-0.12285 -0.0668,-0.25079 -0.075,-0.38014 -0.0128,-0.19507 -0.009,-0.39073 -0.01,-0.58609 10e-4,-0.17519 -0.001,-0.35126 0.0221,-0.5253 0.0237,-0.17592 0.0891,-0.34213 0.14913,-0.50799 0.0709,-0.18488 0.14965,-0.36704 0.2411,-0.54274 0.0613,-0.11543 0.14352,-0.21791 0.2264,-0.31829 0.17825,-0.21092 0.37315,-0.40757 0.57893,-0.59161 0.12243,-0.10755 0.2478,-0.21331 0.38717,-0.2985 0.16949,-0.0995 0.35097,-0.17668 0.53402,-0.24738 0.18357,-0.069 0.37029,-0.13186 0.56262,-0.17152 0.23788,-0.044 0.48136,-0.0482 0.72238,-0.0361 0.2987,0.0169 0.59674,0.0608 0.88491,0.14224 0.24033,0.0677 0.46812,0.17476 0.68241,0.30195 0.42421,0.25433 0.79407,0.59902 1.07777,1.00416 0.15929,0.22734 0.28891,0.47555 0.38206,0.73713 0.2715,0.75689 0.25806,1.60932 -0.0248,2.36095 -0.0666,0.17578 -0.14699,0.34672 -0.24404,0.50781 -0.0948,0.14698 -0.20974,0.27971 -0.32681,0.40919 -0.18611,0.20245 -0.38335,0.39521 -0.59544,0.57043 -0.098,0.0802 -0.19997,0.15676 -0.31251,0.21563 -0.50034,0.27384 -1.07198,0.41166 -1.64151,0.41061 z"
         style="fill:#020000;fill-opacity:1;stroke-width:0.00227431" /><path
         inkscape:connector-curvature="0"
         id="path10-9-5"
         d="m 115.24492,117.41085 c -0.14445,4.4e-4 -0.29062,-0.0362 -0.41179,-0.11638 -0.10636,-0.0694 -0.19376,-0.16477 -0.26555,-0.26879 -0.0627,-0.10143 -0.0836,-0.22224 -0.0917,-0.33949 -0.0118,-0.20596 0.018,-0.41293 0.074,-0.61094 0.0428,-0.1452 0.0998,-0.28573 0.15853,-0.42509 0.16652,-0.38725 0.36413,-0.76039 0.57494,-1.12516 0.25023,-0.43158 0.52317,-0.84995 0.81735,-1.25285 0.76048,-1.04741 1.63901,-2.00984 2.61981,-2.85488 0.97826,-0.84384 2.05695,-1.57037 3.20325,-2.16583 0.17606,-0.0894 0.3515,-0.18026 0.5314,-0.26175 0.0436,-0.0189 0.092,-0.0419 0.14024,-0.026 0.0537,0.0178 0.0927,0.0614 0.13281,0.0991 0.0805,0.0808 0.1554,0.16696 0.22819,0.2547 0.1058,0.12677 0.22017,0.25056 0.33731,0.36869 0.0579,0.0582 0.11685,0.11533 0.18171,0.16569 0.11465,0.0935 0.22705,0.1897 0.34011,0.28511 0.0483,0.0403 0.0966,0.0806 0.14484,0.12086 -0.12902,0.25431 -0.25574,0.50978 -0.38652,0.76318 -0.64305,1.23688 -1.44951,2.38807 -2.38782,3.41886 -0.96744,1.06371 -2.07346,1.99959 -3.27352,2.79082 -0.40731,0.26538 -0.83042,0.50664 -1.2665,0.72151 -0.26565,0.1295 -0.53599,0.25128 -0.81685,0.34424 -0.18885,0.061 -0.38437,0.11419 -0.58425,0.1144 z"
         style="fill:#020000;fill-opacity:1;stroke-width:0.00227431" /><path
         inkscape:connector-curvature="0"
         id="path12-1-8"
         d="m 136.17734,117.40523 c -0.20651,-0.002 -0.40881,-0.0538 -0.60415,-0.11709 -0.31573,-0.1048 -0.61801,-0.24577 -0.91477,-0.39513 -0.78472,-0.39376 -1.52132,-0.87865 -2.21429,-1.41657 -0.78755,-0.61267 -1.52007,-1.29543 -2.19274,-2.03218 -0.63421,-0.69604 -1.21609,-1.44117 -1.72135,-2.23621 -0.22231,-0.34808 -0.4228,-0.70945 -0.61882,-1.07279 -0.11784,-0.2208 -0.23569,-0.4418 -0.34221,-0.66836 -0.0205,-0.0482 -0.047,-0.0957 -0.0534,-0.14841 -0.005,-0.055 0.0319,-0.10088 0.0668,-0.13898 0.0958,-0.10229 0.20227,-0.19389 0.30985,-0.28343 0.14811,-0.12254 0.28605,-0.25853 0.41839,-0.39909 0.0634,-0.067 0.12445,-0.13939 0.18369,-0.21145 0.0805,-0.0942 0.16104,-0.18902 0.25173,-0.27371 0.0336,-0.0319 0.0776,-0.0597 0.12597,-0.0526 0.0564,0.009 0.10751,0.0364 0.15943,0.0587 0.23237,0.10883 0.45901,0.22943 0.68526,0.35034 0.33465,0.18037 0.66675,0.36603 0.9878,0.56986 0.84725,0.53472 1.6405,1.15317 2.37771,1.83109 0.75133,0.69227 1.44554,1.44747 2.06331,2.26144 0.5012,0.66157 0.95206,1.3631 1.32191,2.10674 0.14165,0.28432 0.27727,0.57288 0.37843,0.87445 0.0634,0.19338 0.11434,0.39441 0.11301,0.59924 -4.5e-4,0.15546 -0.0398,0.31297 -0.12643,0.44332 -0.0647,0.0982 -0.15114,0.18143 -0.24853,0.24688 -0.12014,0.0774 -0.26549,0.10497 -0.40662,0.10399 z"
         style="fill:#020000;fill-opacity:1;stroke-width:0.00227431" /><path
         d="m 114.97676,95.063023 c -0.257,0.121903 -0.4137,0.374575 -0.4137,0.67069 0,0.239484 0.23516,0.884023 0.54447,1.485132 1.02776,2.020949 2.97889,4.207255 5.03465,5.640065 0.54447,0.3789 1.32842,0.84059 1.94681,1.15422 l 0.49649,0.24835 0.13509,-0.17421 c 0.17853,-0.22652 0.70117,-0.74916 0.92336,-0.91882 l 0.17422,-0.13942 -0.20901,-0.42689 c -0.8581,-1.74212 -2.24293,-3.553845 -3.7019,-4.8386 -1.2063,-1.062559 -2.17333,-1.742127 -3.24908,-2.273403 -0.85379,-0.427114 -1.38529,-0.561981 -1.6814,-0.427114 z"
         id="path1268-6"
         inkscape:connector-curvature="0"
         style="fill:#ffffff;fill-opacity:1;stroke-width:0.00227431" /><path
         d="m 135.90362,95.032549 c -0.0348,0.01291 -0.19172,0.06097 -0.34842,0.113256 -0.58791,0.187176 -1.62022,0.75348 -2.48241,1.363229 -2.26045,1.602705 -4.13311,3.784676 -5.30029,6.179986 l -0.16558,0.33978 0.19606,0.1567 c 0.24835,0.20037 0.71868,0.6707 0.90153,0.90155 l 0.13509,0.17421 0.49649,-0.24836 c 2.51289,-1.26293 4.67326,-3.19678 6.30644,-5.644397 0.72301,-1.080063 1.24997,-2.273403 1.2063,-2.72212 -0.0348,-0.365942 -0.28315,-0.601102 -0.64886,-0.622712 -0.12645,-0.0084 -0.26132,-0.0041 -0.29635,0.0088 z"
         id="path1270-2"
         inkscape:connector-curvature="0"
         style="fill:#ffffff;fill-opacity:1;stroke-width:0.00227431" /><path
         d="m 125.11587,102.97649 c -0.30044,0.061 -0.79259,0.24836 -1.04959,0.40074 -0.31795,0.18718 -0.94953,0.81443 -1.1367,1.13238 -0.0785,0.13942 -0.20469,0.42257 -0.27884,0.63158 -0.13054,0.36139 -0.13941,0.41802 -0.13941,1.0148 0,0.59677 0.009,0.65318 0.13941,1.01479 0.17854,0.50081 0.36139,0.80579 0.72301,1.18901 0.33091,0.35275 0.70549,0.61407 1.11487,0.77964 0.91904,0.37458 2.01641,0.29612 2.87018,-0.20036 0.31795,-0.19173 0.94498,-0.81876 1.1367,-1.13671 0.49649,-0.85355 0.57495,-1.95113 0.20037,-2.87018 -0.31362,-0.77964 -1.0148,-1.46762 -1.8074,-1.78124 -0.48784,-0.19172 -1.27612,-0.2702 -1.7726,-0.17445 z"
         id="path1272-6"
         inkscape:connector-curvature="0"
         style="fill:#ffffff;fill-opacity:1;stroke-width:0.00227431" /><path
         d="m 121.94525,108.36821 c -2.35618,1.23245 -4.32915,2.95729 -5.87956,5.14791 -0.59678,0.84058 -1.14556,1.8381 -1.37186,2.48264 -0.1351,0.3789 -0.14374,0.81875 -0.0175,0.98432 0.257,0.34843 0.5488,0.39642 1.14534,0.19605 0.55744,-0.18718 1.41099,-0.63158 2.10352,-1.09303 2.44784,-1.63365 4.37282,-3.7806 5.64462,-6.30668 l 0.24835,-0.49216 -0.13054,-0.10894 c -0.0696,-0.061 -0.22652,-0.19172 -0.3441,-0.28748 -0.11327,-0.10006 -0.32659,-0.32226 -0.47466,-0.5008 -0.14373,-0.17421 -0.28315,-0.31795 -0.3093,-0.31795 -0.0264,0 -0.30067,0.1351 -0.61429,0.29612 z"
         id="path1274-5"
         inkscape:connector-curvature="0"
         style="fill:#ffffff;fill-opacity:1;stroke-width:0.00227431" /><path
         d="m 128.54781,108.39891 c -0.14374,0.17854 -0.4137,0.4485 -0.59223,0.59224 -0.17853,0.14805 -0.32659,0.29179 -0.32659,0.31795 0.005,0.0741 0.514,1.04094 0.82739,1.56358 1.44146,2.39531 3.86748,4.70807 6.19319,5.88821 1.01048,0.51831 1.59839,0.64885 1.89882,0.42688 0.45305,-0.33978 0.39642,-0.86674 -0.23084,-2.09487 -1.18901,-2.34323 -3.47993,-4.74286 -5.92754,-6.21502 -0.49217,-0.29611 -1.45897,-0.80579 -1.53312,-0.80579 -0.0216,0 -0.16102,0.14806 -0.30908,0.32682 z"
         id="path1276-3"
         inkscape:connector-curvature="0"
         style="fill:#ffffff;fill-opacity:1;stroke-width:0.00227431" /></g><g
       id="input_boolean.ventilador_despacho"
       inkscape:label="input_boolean.ventilador_despacho"
       transform="matrix(0.26458333,0,0,0.26458333,84.897216,97.686809)"><path
         inkscape:connector-curvature="0"
         id="path4-0"
         d="m 122.53459,104.36318 c -0.20993,-0.10585 -0.42131,-0.20884 -0.63005,-0.31705 -0.45385,-0.23737 -0.89763,-0.49392 -1.3312,-0.76653 -0.27002,-0.1696 -0.534,-0.34879 -0.79055,-0.53816 -0.7508,-0.55256 -1.45087,-1.17276 -2.101,-1.84047 -0.64121,-0.66005 -1.23474,-1.367379 -1.76227,-2.121688 -0.39365,-0.564143 -0.7506,-1.155306 -1.0454,-1.777305 -0.12972,-0.277598 -0.24832,-0.561097 -0.3402,-0.853637 -0.0372,-0.123453 -0.073,-0.248763 -0.0833,-0.377817 -0.0112,-0.220688 0.0632,-0.446461 0.21135,-0.611605 0.0843,-0.09411 0.18997,-0.170208 0.30798,-0.215957 0.15314,-0.05601 0.32077,-0.05098 0.47962,-0.02631 0.23413,0.03807 0.4592,0.117309 0.67855,0.205618 0.28685,0.116954 0.56452,0.255009 0.83928,0.397673 0.5895,0.308528 1.14997,0.67067 1.68294,1.068507 0.49143,0.36658 0.96191,0.760535 1.41997,1.167828 0.62252,0.559078 1.19364,1.174075 1.71949,1.824494 0.56055,0.695119 1.07029,1.431879 1.5143,2.206849 0.16963,0.29591 0.32805,0.59819 0.47618,0.90541 0.06,0.1226 0.12005,0.2452 0.18008,0.3678 -0.10404,0.0838 -0.20917,0.16634 -0.31273,0.25077 -0.15129,0.12907 -0.29543,0.26944 -0.43485,0.40884 -0.1362,0.13818 -0.27075,0.27627 -0.3938,0.42575 -0.0672,0.086 -0.13386,0.17251 -0.20087,0.25872 -0.0278,-0.0139 -0.0557,-0.0278 -0.0835,-0.0418 z"
         style="fill:#020000;fill-opacity:1;stroke-width:0.00227431" /><path
         inkscape:connector-curvature="0"
         id="path6-8"
         d="m 128.74974,104.33094 c -0.0798,-0.10213 -0.15664,-0.20688 -0.24433,-0.30258 -0.17127,-0.19029 -0.35362,-0.37317 -0.54103,-0.54905 -0.10027,-0.0941 -0.20392,-0.18472 -0.3126,-0.26907 -0.0623,-0.0498 -0.12463,-0.0996 -0.18694,-0.14943 0.1464,-0.29903 0.28867,-0.60023 0.446,-0.89375 0.67823,-1.27402 1.53493,-2.450753 2.52148,-3.503305 0.80052,-0.853216 1.68752,-1.62575 2.64567,-2.297324 0.44337,-0.308242 0.90373,-0.592238 1.37897,-0.848688 0.28845,-0.154288 0.58208,-0.300473 0.88755,-0.418264 0.14462,-0.05506 0.29348,-0.09986 0.4402,-0.14749 0.05,-0.01441 0.0982,-0.03739 0.15081,-0.04065 0.10695,-0.0095 0.21484,-0.0068 0.32167,0.0034 0.17628,0.01842 0.34969,0.09014 0.47659,0.215787 0.12739,0.123875 0.20221,0.294906 0.22423,0.469906 0.0196,0.141046 -0.005,0.28354 -0.037,0.420915 -0.0618,0.255717 -0.15703,0.501957 -0.26081,0.743222 -0.19179,0.439826 -0.42013,0.863093 -0.67011,1.272411 -0.19655,0.320791 -0.40945,0.631298 -0.62898,0.936733 -0.93927,1.302097 -2.05754,2.476877 -3.32465,3.463847 -0.85492,0.66659 -1.77715,1.24697 -2.74912,1.7272 -0.16011,0.0801 -0.32022,0.1602 -0.48033,0.24028 -0.019,-0.0246 -0.0381,-0.0492 -0.0572,-0.0738 z"
         style="fill:#020000;fill-opacity:1;stroke-width:0.00227431" /><path
         inkscape:connector-curvature="0"
         id="path8-4"
         d="m 125.70362,109.48795 c -0.58123,-6.8e-4 -1.16531,-0.14834 -1.6664,-0.44564 -0.29772,-0.17584 -0.56386,-0.40214 -0.79588,-0.65787 -0.17856,-0.19349 -0.33985,-0.40452 -0.46426,-0.63712 -0.12281,-0.22692 -0.2124,-0.46981 -0.2945,-0.71384 -0.0411,-0.12285 -0.0668,-0.25079 -0.075,-0.38014 -0.0128,-0.19507 -0.009,-0.39073 -0.01,-0.58609 10e-4,-0.17519 -0.001,-0.35126 0.0221,-0.5253 0.0237,-0.17592 0.0891,-0.34213 0.14913,-0.50799 0.0709,-0.18488 0.14965,-0.36704 0.2411,-0.54274 0.0613,-0.11543 0.14352,-0.21791 0.2264,-0.31829 0.17825,-0.21092 0.37315,-0.40757 0.57893,-0.59161 0.12243,-0.10755 0.2478,-0.21331 0.38717,-0.2985 0.16949,-0.0995 0.35097,-0.17668 0.53402,-0.24738 0.18357,-0.069 0.37029,-0.13186 0.56262,-0.17152 0.23788,-0.044 0.48136,-0.0482 0.72238,-0.0361 0.2987,0.0169 0.59674,0.0608 0.88491,0.14224 0.24033,0.0677 0.46812,0.17476 0.68241,0.30195 0.42421,0.25433 0.79407,0.59902 1.07777,1.00416 0.15929,0.22734 0.28891,0.47555 0.38206,0.73713 0.2715,0.75689 0.25806,1.60932 -0.0248,2.36095 -0.0666,0.17578 -0.14699,0.34672 -0.24404,0.50781 -0.0948,0.14698 -0.20974,0.27971 -0.32681,0.40919 -0.18611,0.20245 -0.38335,0.39521 -0.59544,0.57043 -0.098,0.0802 -0.19997,0.15676 -0.31251,0.21563 -0.50034,0.27384 -1.07198,0.41166 -1.64151,0.41061 z"
         style="fill:#020000;fill-opacity:1;stroke-width:0.00227431" /><path
         inkscape:connector-curvature="0"
         id="path10-9"
         d="m 115.24492,117.41085 c -0.14445,4.4e-4 -0.29062,-0.0362 -0.41179,-0.11638 -0.10636,-0.0694 -0.19376,-0.16477 -0.26555,-0.26879 -0.0627,-0.10143 -0.0836,-0.22224 -0.0917,-0.33949 -0.0118,-0.20596 0.018,-0.41293 0.074,-0.61094 0.0428,-0.1452 0.0998,-0.28573 0.15853,-0.42509 0.16652,-0.38725 0.36413,-0.76039 0.57494,-1.12516 0.25023,-0.43158 0.52317,-0.84995 0.81735,-1.25285 0.76048,-1.04741 1.63901,-2.00984 2.61981,-2.85488 0.97826,-0.84384 2.05695,-1.57037 3.20325,-2.16583 0.17606,-0.0894 0.3515,-0.18026 0.5314,-0.26175 0.0436,-0.0189 0.092,-0.0419 0.14024,-0.026 0.0537,0.0178 0.0927,0.0614 0.13281,0.0991 0.0805,0.0808 0.1554,0.16696 0.22819,0.2547 0.1058,0.12677 0.22017,0.25056 0.33731,0.36869 0.0579,0.0582 0.11685,0.11533 0.18171,0.16569 0.11465,0.0935 0.22705,0.1897 0.34011,0.28511 0.0483,0.0403 0.0966,0.0806 0.14484,0.12086 -0.12902,0.25431 -0.25574,0.50978 -0.38652,0.76318 -0.64305,1.23688 -1.44951,2.38807 -2.38782,3.41886 -0.96744,1.06371 -2.07346,1.99959 -3.27352,2.79082 -0.40731,0.26538 -0.83042,0.50664 -1.2665,0.72151 -0.26565,0.1295 -0.53599,0.25128 -0.81685,0.34424 -0.18885,0.061 -0.38437,0.11419 -0.58425,0.1144 z"
         style="fill:#020000;fill-opacity:1;stroke-width:0.00227431" /><path
         inkscape:connector-curvature="0"
         id="path12-1"
         d="m 136.17734,117.40523 c -0.20651,-0.002 -0.40881,-0.0538 -0.60415,-0.11709 -0.31573,-0.1048 -0.61801,-0.24577 -0.91477,-0.39513 -0.78472,-0.39376 -1.52132,-0.87865 -2.21429,-1.41657 -0.78755,-0.61267 -1.52007,-1.29543 -2.19274,-2.03218 -0.63421,-0.69604 -1.21609,-1.44117 -1.72135,-2.23621 -0.22231,-0.34808 -0.4228,-0.70945 -0.61882,-1.07279 -0.11784,-0.2208 -0.23569,-0.4418 -0.34221,-0.66836 -0.0205,-0.0482 -0.047,-0.0957 -0.0534,-0.14841 -0.005,-0.055 0.0319,-0.10088 0.0668,-0.13898 0.0958,-0.10229 0.20227,-0.19389 0.30985,-0.28343 0.14811,-0.12254 0.28605,-0.25853 0.41839,-0.39909 0.0634,-0.067 0.12445,-0.13939 0.18369,-0.21145 0.0805,-0.0942 0.16104,-0.18902 0.25173,-0.27371 0.0336,-0.0319 0.0776,-0.0597 0.12597,-0.0526 0.0564,0.009 0.10751,0.0364 0.15943,0.0587 0.23237,0.10883 0.45901,0.22943 0.68526,0.35034 0.33465,0.18037 0.66675,0.36603 0.9878,0.56986 0.84725,0.53472 1.6405,1.15317 2.37771,1.83109 0.75133,0.69227 1.44554,1.44747 2.06331,2.26144 0.5012,0.66157 0.95206,1.3631 1.32191,2.10674 0.14165,0.28432 0.27727,0.57288 0.37843,0.87445 0.0634,0.19338 0.11434,0.39441 0.11301,0.59924 -4.5e-4,0.15546 -0.0398,0.31297 -0.12643,0.44332 -0.0647,0.0982 -0.15114,0.18143 -0.24853,0.24688 -0.12014,0.0774 -0.26549,0.10497 -0.40662,0.10399 z"
         style="fill:#020000;fill-opacity:1;stroke-width:0.00227431" /><path
         d="m 114.97676,95.063023 c -0.257,0.121903 -0.4137,0.374575 -0.4137,0.67069 0,0.239484 0.23516,0.884023 0.54447,1.485132 1.02776,2.020949 2.97889,4.207255 5.03465,5.640065 0.54447,0.3789 1.32842,0.84059 1.94681,1.15422 l 0.49649,0.24835 0.13509,-0.17421 c 0.17853,-0.22652 0.70117,-0.74916 0.92336,-0.91882 l 0.17422,-0.13942 -0.20901,-0.42689 c -0.8581,-1.74212 -2.24293,-3.553845 -3.7019,-4.8386 -1.2063,-1.062559 -2.17333,-1.742127 -3.24908,-2.273403 -0.85379,-0.427114 -1.38529,-0.561981 -1.6814,-0.427114 z"
         id="path1268"
         inkscape:connector-curvature="0"
         style="fill:#ffffff;fill-opacity:1;stroke-width:0.00227431" /><path
         d="m 135.90362,95.032549 c -0.0348,0.01291 -0.19172,0.06097 -0.34842,0.113256 -0.58791,0.187176 -1.62022,0.75348 -2.48241,1.363229 -2.26045,1.602705 -4.13311,3.784676 -5.30029,6.179986 l -0.16558,0.33978 0.19606,0.1567 c 0.24835,0.20037 0.71868,0.6707 0.90153,0.90155 l 0.13509,0.17421 0.49649,-0.24836 c 2.51289,-1.26293 4.67326,-3.19678 6.30644,-5.644397 0.72301,-1.080063 1.24997,-2.273403 1.2063,-2.72212 -0.0348,-0.365942 -0.28315,-0.601102 -0.64886,-0.622712 -0.12645,-0.0084 -0.26132,-0.0041 -0.29635,0.0088 z"
         id="path1270"
         inkscape:connector-curvature="0"
         style="fill:#ffffff;fill-opacity:1;stroke-width:0.00227431" /><path
         d="m 125.11587,102.97649 c -0.30044,0.061 -0.79259,0.24836 -1.04959,0.40074 -0.31795,0.18718 -0.94953,0.81443 -1.1367,1.13238 -0.0785,0.13942 -0.20469,0.42257 -0.27884,0.63158 -0.13054,0.36139 -0.13941,0.41802 -0.13941,1.0148 0,0.59677 0.009,0.65318 0.13941,1.01479 0.17854,0.50081 0.36139,0.80579 0.72301,1.18901 0.33091,0.35275 0.70549,0.61407 1.11487,0.77964 0.91904,0.37458 2.01641,0.29612 2.87018,-0.20036 0.31795,-0.19173 0.94498,-0.81876 1.1367,-1.13671 0.49649,-0.85355 0.57495,-1.95113 0.20037,-2.87018 -0.31362,-0.77964 -1.0148,-1.46762 -1.8074,-1.78124 -0.48784,-0.19172 -1.27612,-0.2702 -1.7726,-0.17445 z"
         id="path1272"
         inkscape:connector-curvature="0"
         style="fill:#ffffff;fill-opacity:1;stroke-width:0.00227431" /><path
         d="m 121.94525,108.36821 c -2.35618,1.23245 -4.32915,2.95729 -5.87956,5.14791 -0.59678,0.84058 -1.14556,1.8381 -1.37186,2.48264 -0.1351,0.3789 -0.14374,0.81875 -0.0175,0.98432 0.257,0.34843 0.5488,0.39642 1.14534,0.19605 0.55744,-0.18718 1.41099,-0.63158 2.10352,-1.09303 2.44784,-1.63365 4.37282,-3.7806 5.64462,-6.30668 l 0.24835,-0.49216 -0.13054,-0.10894 c -0.0696,-0.061 -0.22652,-0.19172 -0.3441,-0.28748 -0.11327,-0.10006 -0.32659,-0.32226 -0.47466,-0.5008 -0.14373,-0.17421 -0.28315,-0.31795 -0.3093,-0.31795 -0.0264,0 -0.30067,0.1351 -0.61429,0.29612 z"
         id="path1274"
         inkscape:connector-curvature="0"
         style="fill:#ffffff;fill-opacity:1;stroke-width:0.00227431" /><path
         d="m 128.54781,108.39891 c -0.14374,0.17854 -0.4137,0.4485 -0.59223,0.59224 -0.17853,0.14805 -0.32659,0.29179 -0.32659,0.31795 0.005,0.0741 0.514,1.04094 0.82739,1.56358 1.44146,2.39531 3.86748,4.70807 6.19319,5.88821 1.01048,0.51831 1.59839,0.64885 1.89882,0.42688 0.45305,-0.33978 0.39642,-0.86674 -0.23084,-2.09487 -1.18901,-2.34323 -3.47993,-4.74286 -5.92754,-6.21502 -0.49217,-0.29611 -1.45897,-0.80579 -1.53312,-0.80579 -0.0216,0 -0.16102,0.14806 -0.30908,0.32682 z"
         id="path1276"
         inkscape:connector-curvature="0"
         style="fill:#ffffff;fill-opacity:1;stroke-width:0.00227431" /></g><g
       id="switch.enchufe_doble_socket_2"
       inkscape:label="switch.enchufe_doble_socket_2"
       transform="matrix(0.3303588,0,0,0.3303588,147.30318,116.58276)"><path
         transform="matrix(0.10946544,0,0,0.10946544,52.401348,140.07825)"
         inkscape:connector-curvature="0"
         sodipodi:nodetypes="csssssc"
         id="path3164-3-8"
         d="m -34.91801,123.79523 c 0,12.06801 -8.00162,26.74413 -15.82328,40.42753 -7.82166,13.68341 -0.86387,25.9791 -27.69899,26.3741 -27.99721,0.40614 -21.49676,-14.71499 -29.72328,-28.39839 -8.22651,-13.6834 -15.41842,-26.33523 -15.41842,-38.40324 0,-24.136037 19.86073,-43.724703 44.33199,-43.724703 24.47125,0 44.33198,19.588666 44.33198,43.724703 z"
         style="fill:url(#radialGradient3207-8-1-8);fill-opacity:1;stroke:none;stroke-opacity:1;filter:url(#filter4563-8-7-1)" /><ellipse
         transform="matrix(0.10946544,0,0,0.10946544,52.401348,140.07825)"
         ry="39.473686"
         rx="40.688259"
         cy="120.78307"
         cx="-78.845161"
         id="path3209-8-1"
         style="fill:url(#linearGradient3217-1-5);fill-opacity:1;stroke:none;stroke-width:1.05597;stroke-opacity:1;filter:url(#filter4567-20-2-4)" /><ellipse
         ry="30.364374"
         rx="33.19838"
         cy="-58.906879"
         cx="45.141701"
         transform="matrix(0.10946544,0,0,-0.10946544,38.873389,148.8432)"
         id="path3219-9-8"
         style="fill:url(#linearGradient3221-9-7);fill-opacity:1;stroke:none;stroke-width:0.836575;stroke-opacity:1;filter:url(#filter4571-4-5-6)" /><path
         transform="matrix(0.10946544,0,0,0.10946544,52.401348,140.07825)"
         inkscape:connector-curvature="0"
         sodipodi:nodetypes="ccccccccccccccczc"
         id="path3225-3-2"
         d="m -99.56182,184.09338 0.222673,10.5766 3.186257,4.57409 -2.5088,5.57341 3.51014,5.90136 -3.363033,4.98025 4.993336,5.31416 15.071597,3.07295 16.43406,-2.84952 4.62396,-4.91887 -2.21455,-6.15629 2.31716,-4.58691 -3.81921,-6.45144 2.92108,-4.36482 0.17881,-11.27226 c 0,0 -7.52064,3.28317 -19.62223,3.6963 -12.10863,0.41337 -21.93125,-3.08901 -21.93125,-3.08901 z"
         style="fill:url(#linearGradient3245-3-6);fill-opacity:1;fill-rule:evenodd;stroke:none;stroke-width:1.30478px;stroke-linecap:butt;stroke-linejoin:miter;stroke-opacity:1;filter:url(#filter4575-0-3-2)" /><path
         transform="matrix(0.10946544,0,0,0.10946544,52.401348,140.07825)"
         inkscape:connector-curvature="0"
         sodipodi:nodetypes="cccc"
         id="path3249-4-6"
         d="m -90.3836,219.77094 25.07693,0.40486 -13.36033,6.88259 z"
         style="fill:#000000;fill-opacity:1;fill-rule:evenodd;stroke:none;stroke-width:1px;stroke-linecap:butt;stroke-linejoin:miter;stroke-opacity:1;filter:url(#filter4579-4-1-9)" /><path
         transform="matrix(0.10946544,0,0,0.10946544,52.401348,140.07825)"
         inkscape:connector-curvature="0"
         sodipodi:nodetypes="ccccccc"
         id="path3251-4-6"
         d="m -98.102917,195.34111 19.865067,2.92375 18.80306,-2.82256 -3.13769,4.49194 -15.87717,2.12554 -16.843557,-2.59312 z"
         style="fill:#666666;fill-opacity:1;fill-rule:evenodd;stroke:none;stroke-width:1px;stroke-linecap:butt;stroke-linejoin:miter;stroke-opacity:1;filter:url(#filter4583-7-3-3)" /><path
         transform="matrix(0.10946544,0,0,0.10946544,52.401348,140.07825)"
         inkscape:connector-curvature="0"
         sodipodi:nodetypes="ccccccc"
         id="path3253-6-0"
         d="m -96.900487,206.38632 18.650487,2.60727 19.62556,-2.20241 -2.09988,4.32796 -17.57426,2.57893 -15.81785,-2.60457 z"
         style="fill:#4d4d4d;fill-opacity:1;fill-rule:evenodd;stroke:none;stroke-width:1px;stroke-linecap:butt;stroke-linejoin:miter;stroke-opacity:1;filter:url(#filter4587-5-7-2)" /><path
         transform="matrix(0.10946544,0,0,0.10946544,52.401348,140.07825)"
         inkscape:connector-curvature="0"
         sodipodi:nodetypes="ccccccc"
         id="path3255-0-3"
         d="m -97.74797,215.61303 20.01619,3.82186 19.40891,-3.41699 -4.55189,4.63022 -15.10803,2.68153 -14.80571,-2.9467 z"
         style="fill:#4d4d4d;fill-opacity:1;fill-rule:evenodd;stroke:none;stroke-width:1px;stroke-linecap:butt;stroke-linejoin:miter;stroke-opacity:1;filter:url(#filter4591-8-2-0)" /><path
         transform="matrix(0.10946544,0,0,0.10946544,52.401348,140.07825)"
         inkscape:connector-curvature="0"
         sodipodi:nodetypes="czcczcc"
         id="path3257-6-8"
         d="m -99.49291,184.7264 c 0,0 6.12549,3.25237 20.24292,3.4413 14.02906,0.18774 21.01555,-2.83401 21.01555,-2.83401 l 0.82115,-2.80836 c 0,0 -3.84105,3.66822 -21.8367,3.41565 -17.907276,-0.25133 -21.25506,-3.84615 -21.25506,-3.84615 z"
         style="fill:#333333;fill-opacity:1;fill-rule:evenodd;stroke:none;stroke-width:1px;stroke-linecap:butt;stroke-linejoin:miter;stroke-opacity:1;filter:url(#filter4595-5-7-6)" /><ellipse
         transform="matrix(0.10946544,0,0,0.10946544,52.401348,140.07825)"
         ry="27.223612"
         rx="33.941124"
         cy="114.11728"
         cx="-79.156761"
         id="path2408-6-0"
         style="fill:url(#linearGradient3190-3-7);fill-opacity:1;stroke:none;stroke-width:0.819756;stroke-opacity:1;filter:url(#filter4599-0-8-1)" /><ellipse
         transform="matrix(0.10946544,0,0,0.10946544,52.401348,140.07825)"
         ry="4.2426405"
         rx="17.324116"
         cy="180.46399"
         cx="-78.803207"
         id="path3196-1-1"
         style="fill:#b77300;fill-opacity:0.566038;stroke:none;stroke-opacity:1;filter:url(#filter4603-1-5-0)" /><path
         transform="matrix(0.10946544,0,0,0.10946544,52.401348,140.07825)"
         inkscape:connector-curvature="0"
         sodipodi:nodetypes="cccccssc"
         id="path3200-8-2"
         d="m -89.642038,179.52465 c 0,0 4.949748,-7.77817 4.596194,-13.43503 0.0906,-7.10207 -4.703174,-17.52694 -9.545942,-27.22361 1.397904,-4.21905 6.717515,3.18198 14.495686,3.18198 8.87175,-1.23111 12.32574,-7.16866 14.49569,-2.12132 -2.12132,2.82843 -7.95723,18.32999 -7.77817,26.16295 0.19409,8.49043 3.18198,10.6066 4.94975,13.78858 1.30764,2.35375 -16.26346,3.53554 -21.213208,-0.35355 z"
         style="fill:url(#linearGradient3216-2-1);fill-opacity:1;fill-rule:evenodd;stroke:none;stroke-width:1px;stroke-linecap:butt;stroke-linejoin:miter;stroke-opacity:1;filter:url(#filter4607-3-2-7)" /><path
         transform="matrix(0.10946544,0,0,0.10946544,52.401348,140.07825)"
         inkscape:connector-curvature="0"
         sodipodi:nodetypes="cccc"
         id="path3206-4-5"
         d="m -90.824019,141.69444 -8.485281,-18.03123 9.899495,18.03123 z"
         style="fill:#cba612;fill-opacity:1;fill-rule:evenodd;stroke:none;stroke-width:1px;stroke-linecap:butt;stroke-linejoin:miter;stroke-opacity:1;filter:url(#filter4611-94-8-7)" /><path
         transform="matrix(0.10946544,0,0,0.10946544,52.401348,140.07825)"
         inkscape:connector-curvature="0"
         sodipodi:nodetypes="cccc"
         id="path3208-9-0"
         d="m -70.31792,140.98733 10.25305,-18.38478 -8.13173,18.03123 z"
         style="fill:#f6c24a;fill-opacity:1;fill-rule:evenodd;stroke:none;stroke-width:1px;stroke-linecap:butt;stroke-linejoin:miter;stroke-opacity:1;filter:url(#filter4615-9-5-7)" /><path
         transform="matrix(0.10946544,0,0,0.10946544,52.401348,140.07825)"
         inkscape:connector-curvature="0"
         id="path3204-6-9"
         d="m -98.955746,122.83479 4.24264,-4.24264 4.242641,6.0104 4.949747,-5.65685 5.303298,6.01041 5.65686,-6.01041 5.3033,5.3033 4.94975,-5.3033 4.24264,4.59619 -1.41422,2.47488 -3.18198,-3.53554 -4.59619,4.94975 -5.3033,-5.65685 -5.65686,6.36396 -5.656851,-5.3033 -5.656854,4.94975 -3.889088,-5.30331 -3.535533,4.5962 -2.828424,-1.41422 z"
         style="fill:#ad7b16;fill-opacity:1;fill-rule:evenodd;stroke:none;stroke-width:1px;stroke-linecap:butt;stroke-linejoin:miter;stroke-opacity:1;filter:url(#filter4619-6-9-3)" /></g><g
       id="switch.enchufe_doble_socket_1"
       inkscape:label="switch.enchufe_doble_socket_1"
       transform="matrix(0.3303588,0,0,0.3303588,147.31565,105.28149)"><path
         transform="matrix(0.10946544,0,0,0.10946544,52.401348,140.07825)"
         inkscape:connector-curvature="0"
         sodipodi:nodetypes="csssssc"
         id="path3164-3-8-8"
         d="m -34.91801,123.79523 c 0,12.06801 -8.00162,26.74413 -15.82328,40.42753 -7.82166,13.68341 -0.86387,25.9791 -27.69899,26.3741 -27.99721,0.40614 -21.49676,-14.71499 -29.72328,-28.39839 -8.22651,-13.6834 -15.41842,-26.33523 -15.41842,-38.40324 0,-24.136037 19.86073,-43.724703 44.33199,-43.724703 24.47125,0 44.33198,19.588666 44.33198,43.724703 z"
         style="fill:url(#radialGradient3207-8-1-8-6);fill-opacity:1;stroke:none;stroke-opacity:1;filter:url(#filter4563-8-7-1-8)" /><ellipse
         transform="matrix(0.10946544,0,0,0.10946544,52.401348,140.07825)"
         ry="39.473686"
         rx="40.688259"
         cy="120.78307"
         cx="-78.845161"
         id="path3209-8-1-8"
         style="fill:url(#linearGradient3217-1-5-1);fill-opacity:1;stroke:none;stroke-width:1.05597;stroke-opacity:1;filter:url(#filter4567-20-2-4-9)" /><ellipse
         ry="30.364374"
         rx="33.19838"
         cy="-58.906879"
         cx="45.141701"
         transform="matrix(0.10946544,0,0,-0.10946544,38.873389,148.8432)"
         id="path3219-9-8-0"
         style="fill:url(#linearGradient3221-9-7-8);fill-opacity:1;stroke:none;stroke-width:0.836575;stroke-opacity:1;filter:url(#filter4571-4-5-6-0)" /><path
         transform="matrix(0.10946544,0,0,0.10946544,52.401348,140.07825)"
         inkscape:connector-curvature="0"
         sodipodi:nodetypes="ccccccccccccccczc"
         id="path3225-3-2-6"
         d="m -99.56182,184.09338 0.222673,10.5766 3.186257,4.57409 -2.5088,5.57341 3.51014,5.90136 -3.363033,4.98025 4.993336,5.31416 15.071597,3.07295 16.43406,-2.84952 4.62396,-4.91887 -2.21455,-6.15629 2.31716,-4.58691 -3.81921,-6.45144 2.92108,-4.36482 0.17881,-11.27226 c 0,0 -7.52064,3.28317 -19.62223,3.6963 -12.10863,0.41337 -21.93125,-3.08901 -21.93125,-3.08901 z"
         style="fill:url(#linearGradient3245-3-6-7);fill-opacity:1;fill-rule:evenodd;stroke:none;stroke-width:1.30478px;stroke-linecap:butt;stroke-linejoin:miter;stroke-opacity:1;filter:url(#filter4575-0-3-2-8)" /><path
         transform="matrix(0.10946544,0,0,0.10946544,52.401348,140.07825)"
         inkscape:connector-curvature="0"
         sodipodi:nodetypes="cccc"
         id="path3249-4-6-8"
         d="m -90.3836,219.77094 25.07693,0.40486 -13.36033,6.88259 z"
         style="fill:#000000;fill-opacity:1;fill-rule:evenodd;stroke:none;stroke-width:1px;stroke-linecap:butt;stroke-linejoin:miter;stroke-opacity:1;filter:url(#filter4579-4-1-9-7)" /><path
         transform="matrix(0.10946544,0,0,0.10946544,52.401348,140.07825)"
         inkscape:connector-curvature="0"
         sodipodi:nodetypes="ccccccc"
         id="path3251-4-6-1"
         d="m -98.102917,195.34111 19.865067,2.92375 18.80306,-2.82256 -3.13769,4.49194 -15.87717,2.12554 -16.843557,-2.59312 z"
         style="fill:#666666;fill-opacity:1;fill-rule:evenodd;stroke:none;stroke-width:1px;stroke-linecap:butt;stroke-linejoin:miter;stroke-opacity:1;filter:url(#filter4583-7-3-3-0)" /><path
         transform="matrix(0.10946544,0,0,0.10946544,52.401348,140.07825)"
         inkscape:connector-curvature="0"
         sodipodi:nodetypes="ccccccc"
         id="path3253-6-0-9"
         d="m -96.900487,206.38632 18.650487,2.60727 19.62556,-2.20241 -2.09988,4.32796 -17.57426,2.57893 -15.81785,-2.60457 z"
         style="fill:#4d4d4d;fill-opacity:1;fill-rule:evenodd;stroke:none;stroke-width:1px;stroke-linecap:butt;stroke-linejoin:miter;stroke-opacity:1;filter:url(#filter4587-5-7-2-3)" /><path
         transform="matrix(0.10946544,0,0,0.10946544,52.401348,140.07825)"
         inkscape:connector-curvature="0"
         sodipodi:nodetypes="ccccccc"
         id="path3255-0-3-8"
         d="m -97.74797,215.61303 20.01619,3.82186 19.40891,-3.41699 -4.55189,4.63022 -15.10803,2.68153 -14.80571,-2.9467 z"
         style="fill:#4d4d4d;fill-opacity:1;fill-rule:evenodd;stroke:none;stroke-width:1px;stroke-linecap:butt;stroke-linejoin:miter;stroke-opacity:1;filter:url(#filter4591-8-2-0-9)" /><path
         transform="matrix(0.10946544,0,0,0.10946544,52.401348,140.07825)"
         inkscape:connector-curvature="0"
         sodipodi:nodetypes="czcczcc"
         id="path3257-6-8-9"
         d="m -99.49291,184.7264 c 0,0 6.12549,3.25237 20.24292,3.4413 14.02906,0.18774 21.01555,-2.83401 21.01555,-2.83401 l 0.82115,-2.80836 c 0,0 -3.84105,3.66822 -21.8367,3.41565 -17.907276,-0.25133 -21.25506,-3.84615 -21.25506,-3.84615 z"
         style="fill:#333333;fill-opacity:1;fill-rule:evenodd;stroke:none;stroke-width:1px;stroke-linecap:butt;stroke-linejoin:miter;stroke-opacity:1;filter:url(#filter4595-5-7-6-5)" /><ellipse
         transform="matrix(0.10946544,0,0,0.10946544,52.401348,140.07825)"
         ry="27.223612"
         rx="33.941124"
         cy="114.11728"
         cx="-79.156761"
         id="path2408-6-0-7"
         style="fill:url(#linearGradient3190-3-7-0);fill-opacity:1;stroke:none;stroke-width:0.819756;stroke-opacity:1;filter:url(#filter4599-0-8-1-6)" /><ellipse
         transform="matrix(0.10946544,0,0,0.10946544,52.401348,140.07825)"
         ry="4.2426405"
         rx="17.324116"
         cy="180.46399"
         cx="-78.803207"
         id="path3196-1-1-2"
         style="fill:#b77300;fill-opacity:0.566038;stroke:none;stroke-opacity:1;filter:url(#filter4603-1-5-0-3)" /><path
         transform="matrix(0.10946544,0,0,0.10946544,52.401348,140.07825)"
         inkscape:connector-curvature="0"
         sodipodi:nodetypes="cccccssc"
         id="path3200-8-2-2"
         d="m -89.642038,179.52465 c 0,0 4.949748,-7.77817 4.596194,-13.43503 0.0906,-7.10207 -4.703174,-17.52694 -9.545942,-27.22361 1.397904,-4.21905 6.717515,3.18198 14.495686,3.18198 8.87175,-1.23111 12.32574,-7.16866 14.49569,-2.12132 -2.12132,2.82843 -7.95723,18.32999 -7.77817,26.16295 0.19409,8.49043 3.18198,10.6066 4.94975,13.78858 1.30764,2.35375 -16.26346,3.53554 -21.213208,-0.35355 z"
         style="fill:url(#linearGradient3216-2-1-8);fill-opacity:1;fill-rule:evenodd;stroke:none;stroke-width:1px;stroke-linecap:butt;stroke-linejoin:miter;stroke-opacity:1;filter:url(#filter4607-3-2-7-2)" /><path
         transform="matrix(0.10946544,0,0,0.10946544,52.401348,140.07825)"
         inkscape:connector-curvature="0"
         sodipodi:nodetypes="cccc"
         id="path3206-4-5-8"
         d="m -90.824019,141.69444 -8.485281,-18.03123 9.899495,18.03123 z"
         style="fill:#cba612;fill-opacity:1;fill-rule:evenodd;stroke:none;stroke-width:1px;stroke-linecap:butt;stroke-linejoin:miter;stroke-opacity:1;filter:url(#filter4611-94-8-7-5)" /><path
         transform="matrix(0.10946544,0,0,0.10946544,52.401348,140.07825)"
         inkscape:connector-curvature="0"
         sodipodi:nodetypes="cccc"
         id="path3208-9-0-2"
         d="m -70.31792,140.98733 10.25305,-18.38478 -8.13173,18.03123 z"
         style="fill:#f6c24a;fill-opacity:1;fill-rule:evenodd;stroke:none;stroke-width:1px;stroke-linecap:butt;stroke-linejoin:miter;stroke-opacity:1;filter:url(#filter4615-9-5-7-3)" /><path
         transform="matrix(0.10946544,0,0,0.10946544,52.401348,140.07825)"
         inkscape:connector-curvature="0"
         id="path3204-6-9-8"
         d="m -98.955746,122.83479 4.24264,-4.24264 4.242641,6.0104 4.949747,-5.65685 5.303298,6.01041 5.65686,-6.01041 5.3033,5.3033 4.94975,-5.3033 4.24264,4.59619 -1.41422,2.47488 -3.18198,-3.53554 -4.59619,4.94975 -5.3033,-5.65685 -5.65686,6.36396 -5.656851,-5.3033 -5.656854,4.94975 -3.889088,-5.30331 -3.535533,4.5962 -2.828424,-1.41422 z"
         style="fill:#ad7b16;fill-opacity:1;fill-rule:evenodd;stroke:none;stroke-width:1px;stroke-linecap:butt;stroke-linejoin:miter;stroke-opacity:1;filter:url(#filter4619-6-9-3-7)" /></g></g></svg>
