<?xml version="1.0" standalone="no"?>
<!DOCTYPE svg PUBLIC "-//W3C//DTD SVG 20010904//EN"
 "http://www.w3.org/TR/2001/REC-SVG-20010904/DTD/svg10.dtd">
<svg version="1.0" xmlns="http://www.w3.org/2000/svg"
 width="521.000000pt" height="1121.000000pt" viewBox="0 0 521.000000 1121.000000"
 preserveAspectRatio="xMidYMid meet">
<metadata>
Created by potrace 1.16, written by Peter Selinger 2001-2019
</metadata>
<g transform="translate(0.000000,1121.000000) scale(0.100000,-0.100000)"
fill="#000000" stroke="none">
<path d="M37 6283 l3 -4848 227 0 228 0 3 53 c2 28 7 52 13 52 5 0 9 16 9 35
l0 35 230 0 230 0 0 -35 c0 -19 4 -35 9 -35 6 0 11 -24 13 -52 l3 -53 408 -3
407 -2 0 -695 0 -695 1673 0 1674 0 -4 4228 c-1 2325 0 4302 3 4395 6 142 9
167 22 167 13 0 13 3 4 12 -18 18 -17 624 1 631 7 4 6 6 -5 6 -27 2 -31 143
-23 922 l7 729 -2568 0 -2569 0 2 -4847z m2973 4342 l0 -215 -895 0 -895 0 0
215 0 215 895 0 895 0 0 -215z m326 196 c94 -57 51 -201 -60 -201 -56 0 -106
52 -106 110 0 34 6 48 34 76 40 40 83 45 132 15z m1114 9 c0 -7 -160 -10 -460
-10 -300 0 -460 3 -460 10 0 7 160 10 460 10 300 0 460 -3 460 -10z m376 -24
c19 -19 34 -30 34 -25 0 5 -9 18 -20 29 l-20 20 25 0 c24 0 24 -2 22 -72 -1
-40 2 -201 7 -358 5 -157 5 -527 1 -822 l-7 -538 -259 0 -258 0 -3 53 -3 52
-337 3 -338 2 0 -55 0 -55 -760 0 -760 0 0 -135 0 -135 -39 0 c-22 0 -43 -5
-47 -12 -4 -7 -13 20 -20 61 -17 98 -62 187 -130 254 -87 88 -165 126 -292
142 l-52 7 -1 -239 c0 -131 -3 -232 -6 -225 -3 9 -47 12 -169 12 l-164 0 0
118 c-1 129 -9 152 -54 152 l-26 0 0 195 0 195 26 0 c48 0 54 17 54 164 l0
135 158 3 157 3 3 333 2 332 605 0 605 0 0 -375 0 -375 240 0 240 0 0 380 0
380 -110 0 -110 0 0 210 0 210 91 0 90 0 -20 -29 c-26 -36 -28 -102 -5 -137
21 -32 64 -54 104 -54 99 0 155 125 89 196 l-22 24 81 0 82 0 0 -660 0 -660
475 0 475 0 0 660 c0 660 0 660 21 660 11 0 17 -4 14 -10 -4 -6 9 -10 32 -11
67 -2 108 3 111 12 2 5 13 9 25 9 19 0 19 -1 4 -12 -37 -29 -47 -103 -21 -148
44 -74 146 -80 202 -12 25 32 11 29 -22 -4 -28 -28 -42 -34 -76 -34 -35 0 -48
6 -77 35 -33 33 -35 39 -30 82 11 100 114 138 183 69z m-3708 -188 l-3 -213
-127 -3 -128 -3 0 -134 0 -134 128 -3 127 -3 3 -47 c3 -44 2 -47 -25 -50 l-28
-3 -3 -109 c-3 -116 9 -166 40 -166 15 0 17 -17 20 -155 l3 -155 -197 0 -197
0 5 -37 c16 -123 49 -188 134 -267 61 -56 135 -92 214 -102 l41 -6 -3 -164 -3
-164 -405 0 -405 0 3 23 c3 22 6 22 160 25 l156 2 4 190 c1 105 1 276 0 380
l-4 190 -159 0 -159 0 0 130 0 130 32 0 c17 0 39 7 48 15 13 11 24 13 51 5 75
-22 168 2 203 51 38 55 8 137 -60 165 -39 16 -112 18 -150 4 -20 -8 -31 -7
-43 4 -9 8 -25 16 -36 19 -18 4 -18 5 3 6 19 1 22 7 22 41 0 41 -9 47 -57 41
-10 -1 -13 35 -13 154 l0 155 140 0 c107 0 148 4 170 15 79 41 79 179 0 220
-22 11 -63 15 -170 15 l-140 0 0 75 0 75 405 0 405 0 -2 -212z m2432 -438 c0
-413 -3 -630 -10 -630 -7 0 -10 217 -10 630 0 413 3 630 10 630 7 0 10 -217
10 -630z m860 0 l0 -630 -425 0 -425 0 0 630 0 630 425 0 425 0 0 -630z m40 0
c0 -553 -2 -630 -15 -630 -13 0 -15 76 -15 623 0 343 3 627 7 630 3 4 10 7 15
7 4 0 8 -283 8 -630z m-3818 461 c30 -27 33 -35 33 -86 0 -51 -3 -59 -33 -86
l-32 -29 -150 0 -150 0 0 115 0 115 150 0 150 0 32 -29z m4348 -646 l0 -425
-45 0 -45 0 0 425 0 425 45 0 45 0 0 -425z m170 0 l0 -425 -45 0 -45 0 0 425
0 425 45 0 45 0 0 -425z m-3610 80 l0 -325 -160 0 -160 0 0 325 0 325 160 0
160 0 0 -325z m1690 -45 l0 -370 -225 0 -225 0 0 370 0 370 225 0 225 0 0
-370z m-2130 350 c0 -5 7 -10 15 -10 12 0 15 -18 15 -105 0 -87 -3 -105 -15
-105 -8 0 -15 -4 -15 -10 0 -6 -40 -10 -100 -10 -60 0 -100 4 -100 10 0 6 -7
10 -15 10 -12 0 -15 18 -15 105 0 87 3 105 15 105 8 0 15 5 15 10 0 6 40 10
100 10 60 0 100 -4 100 -10z m3918 -391 c-2 -234 -7 -364 -13 -364 -11 0 -20
708 -10 734 4 9 9 11 15 5 7 -7 9 -146 8 -375z m-4644 25 c13 -5 16 -25 16
-115 l0 -109 -45 0 -45 0 0 108 c0 60 3 112 7 115 8 9 46 9 67 1z m200 -18
c83 -35 103 -111 42 -164 -42 -37 -99 -48 -166 -32 l-50 12 0 89 0 88 33 10
c48 14 103 13 141 -3z m3876 -466 c0 -7 -160 -10 -460 -10 -300 0 -460 3 -460
10 0 7 160 10 460 10 300 0 460 -3 460 -10z m-3830 -400 l0 -370 -155 0 -155
0 0 45 0 44 123 3 122 3 0 280 0 280 -120 5 -120 5 -3 38 -3 37 155 0 156 0 0
-370z m-250 150 c0 -123 -1 -130 -20 -130 -11 0 -20 -7 -20 -15 0 -8 9 -15 20
-15 19 0 20 -7 22 -127 l2 -128 6 130 c3 72 8 122 12 112 5 -12 16 -17 30 -15
18 2 24 12 29 40 7 44 4 48 -32 48 -18 0 -29 -6 -32 -17 -3 -10 -5 39 -6 108
-1 143 -4 139 80 139 94 0 89 15 89 -276 0 -195 -3 -256 -12 -258 -7 -3 -61
-7 -120 -10 l-108 -6 0 275 0 275 30 0 30 0 0 -130z m760 -66 l0 -176 -47 7
c-59 8 -142 45 -193 85 -64 51 -139 184 -140 248 0 9 45 12 190 12 l190 0 0
-176z m581 -28 c106 -32 191 -97 255 -193 37 -56 72 -159 73 -215 l1 -28 -210
0 -210 0 0 225 0 225 23 0 c12 0 43 -7 68 -14z m1989 -63 c0 -13 3 -14 8 -6 6
9 87 13 317 13 l310 2 3 -61 3 -61 -331 0 -330 0 0 65 c0 37 4 65 10 65 6 0
10 -8 10 -17z m640 -190 c0 -5 119 -7 263 -5 l264 3 6 -212 c9 -271 9 -708 0
-1006 l-6 -233 -393 0 -394 0 -2 163 -3 162 -457 3 -458 2 -2 -162 -3 -163
-272 -3 c-256 -2 -273 -1 -273 15 0 32 -49 44 -166 41 l-109 -3 -3 -27 c-3
-25 -8 -28 -38 -28 l-34 0 0 64 c0 42 -4 66 -12 69 -7 3 94 6 225 6 l239 1 -7
53 c-16 125 -52 202 -136 286 -72 71 -143 109 -247 131 -48 10 -81 19 -74 19
9 1 12 90 12 411 l0 410 705 0 c620 0 705 -2 705 -15 0 -13 -47 -15 -360 -15
l-360 0 0 -405 0 -405 755 0 755 0 0 405 0 405 -62 -2 -63 -2 58 -3 57 -4 0
-394 c0 -344 -2 -395 -15 -395 -13 0 -15 50 -17 378 l-3 377 -2 -363 -3 -362
-708 2 -707 3 -5 355 -5 355 -3 -372 c-1 -241 -6 -373 -12 -373 -6 0 -10 138
-10 395 l0 395 353 0 354 0 1 -35 c1 -20 4 -40 7 -45 4 -6 109 -10 255 -10
l249 0 3 -142 3 -143 100 0 100 0 3 153 c2 147 2 154 -18 159 -12 3 -20 14
-21 27 -1 15 -3 13 -8 -8 -3 -16 -12 -31 -19 -34 -7 -2 -12 0 -11 5 3 18 -2
27 -9 16 -6 -9 -88 -13 -315 -15 l-307 -3 0 63 0 62 330 0 c182 0 330 -3 330
-7z m40 -263 l0 -150 -95 0 -95 0 0 140 0 140 75 0 c43 0 75 4 75 10 0 6 9 10
20 10 19 0 20 -7 20 -150z m-2340 35 c0 -37 7 -41 75 -47 l30 -3 5 -280 c3
-154 7 -281 8 -282 1 -2 18 -3 37 -3 l35 0 0 -230 0 -230 -34 0 c-22 0 -36 -6
-40 -16 -8 -20 -8 -328 0 -348 4 -10 18 -16 40 -16 l34 0 0 -230 0 -230 -34 0
c-22 0 -36 -6 -40 -16 -3 -9 -6 -65 -6 -125 l0 -109 -56 0 c-62 0 -84 -14 -84
-54 l0 -26 -225 0 -225 0 0 30 c0 20 -5 30 -15 30 -8 0 -15 5 -15 10 0 6 -22
10 -50 10 l-50 0 0 289 c0 159 -3 296 -6 305 -4 10 -18 16 -40 16 l-34 0 0
230 0 230 28 0 c50 0 52 8 52 227 l0 203 49 0 c40 0 51 -4 56 -19 3 -10 20
-25 37 -32 26 -10 35 -10 56 2 48 26 46 98 -2 120 -34 16 -74 3 -88 -26 -10
-22 -18 -25 -60 -25 l-48 0 2 298 3 297 50 3 c87 4 95 8 95 47 l0 35 230 0
230 0 0 -35z m-920 -35 c0 -6 40 -10 100 -10 l100 0 0 -235 0 -235 -41 0 -41
0 26 31 c35 42 38 58 34 207 -3 113 -6 134 -24 159 -46 63 -47 63 -507 63
-269 0 -425 -4 -438 -10 -16 -9 -19 -7 -19 15 l0 25 405 0 c263 0 405 -3 405
-10z m3860 -450 l0 -430 -45 0 -45 0 0 423 c0 233 3 427 7 430 3 4 24 7 45 7
l38 0 0 -430z m170 0 l0 -430 -45 0 -45 0 0 430 0 430 45 0 45 0 0 -430z
m-3947 406 c18 -7 43 -26 57 -40 24 -26 25 -35 28 -160 4 -153 -7 -193 -60
-226 -32 -19 -49 -20 -462 -20 -496 0 -466 -6 -466 90 0 42 4 59 15 64 10 4
15 -1 15 -14 0 -13 7 -20 20 -20 19 0 24 13 23 73 0 9 4 17 9 17 4 0 8 -38 8
-84 0 -68 3 -86 18 -97 14 -11 15 -11 5 1 -8 9 -13 45 -13 97 l0 84 75 -2 c66
-2 75 -4 75 -20 0 -16 8 -19 55 -19 l55 0 0 55 0 55 -55 0 c-46 0 -55 -3 -55
-17 0 -15 -12 -18 -75 -21 l-76 -4 3 89 3 88 382 3 381 2 26 -31 c25 -29 26
-35 26 -160 0 -72 -5 -139 -10 -149 -23 -43 -40 -45 -420 -50 l-365 -6 373 1
374 0 29 33 c29 32 29 33 29 165 0 114 -3 136 -20 164 -11 18 -30 35 -42 38
-13 3 -192 4 -398 3 l-375 -3 -3 -85 c-2 -47 -8 -89 -14 -95 -8 -7 -9 -5 -5 8
11 31 -4 77 -24 77 -12 0 -19 -7 -19 -20 0 -13 -5 -18 -15 -14 -11 5 -15 22
-15 70 0 100 -27 94 458 94 327 0 419 -3 445 -14z m3817 -406 c0 -322 -2 -370
-15 -370 -13 0 -15 48 -15 370 0 322 2 370 15 370 13 0 15 -48 15 -370z m-610
-110 c0 -7 -243 -10 -710 -10 -467 0 -710 3 -710 10 0 7 243 10 710 10 467 0
710 -3 710 -10z m-2089 -30 c71 -14 164 -58 218 -106 77 -67 151 -205 151
-283 0 -21 -3 -21 -225 -21 l-225 0 0 210 c0 171 3 210 14 210 7 0 37 -5 67
-10z m-1001 -29 c0 -25 -4 -30 -27 -33 l-28 -3 -3 -104 c-3 -112 14 -178 44
-167 11 4 14 -7 14 -53 0 -38 4 -61 13 -64 6 -3 -95 -6 -225 -6 l-238 -1 0
-22 c1 -58 32 -164 64 -217 78 -128 232 -230 351 -231 29 0 75 -20 48 -20 -10
0 -13 -66 -13 -295 l0 -295 -42 0 -41 0 20 23 c38 41 43 63 43 194 0 146 -11
182 -69 221 l-35 23 -443 -3 -443 -3 0 68 0 67 159 0 159 0 4 120 c2 66 2 174
0 240 l-4 120 -159 0 -159 0 0 65 0 65 38 0 c21 0 43 5 48 10 8 8 26 7 59 0
66 -15 135 2 175 42 56 56 35 135 -47 177 -26 13 -122 15 -156 2 -19 -8 -27
-6 -31 5 -3 9 -20 14 -46 14 l-40 0 0 45 0 45 505 0 505 0 0 -29z m-935 -93
c3 -13 5 -63 3 -113 l-3 -90 -42 -3 -43 -3 0 115 0 116 40 0 c33 0 41 -4 45
-22z m199 -2 c86 -36 89 -138 6 -181 -33 -17 -126 -20 -164 -5 -25 9 -26 12
-26 95 0 79 2 86 23 95 34 14 124 12 161 -4z m3486 -321 l0 -165 -450 0 -450
0 0 165 0 165 450 0 450 0 0 -165z m-3450 -265 l0 -230 -162 2 c-90 1 -126 4
-80 5 101 5 122 16 157 86 34 69 35 161 1 234 -33 70 -60 85 -157 91 -69 4
-79 7 -79 23 0 18 10 19 160 19 l160 0 0 -230z m720 0 l0 -210 -42 0 c-161 1
-341 146 -393 318 -8 26 -15 59 -15 75 l0 27 225 0 225 0 0 -210z m-854 149
c86 -79 85 -269 -1 -337 -23 -18 -41 -22 -106 -22 l-79 0 0 196 0 197 80 -5
c67 -4 84 -9 106 -29z m3184 -203 c0 -49 4 -65 16 -70 9 -3 76 -6 150 -6 132
0 134 0 135 -22 l2 -23 4 23 c2 12 11 22 18 22 18 0 46 -40 38 -53 -3 -6 5 -2
19 9 14 10 23 25 21 31 -4 9 7 13 36 13 49 0 52 -6 9 -25 -18 -8 -26 -14 -17
-15 9 0 28 9 42 20 20 16 40 20 106 20 l81 0 -2 -187 -3 -188 -709 -3 c-561
-2 -711 0 -718 10 -9 16 -11 492 -1 501 3 4 179 7 390 7 l383 0 0 -64z m668 7
c-2 -37 -8 -58 -17 -61 -8 -3 -11 -1 -8 4 3 5 -127 8 -301 6 -186 -2 -308 -7
-310 -12 -10 -27 -22 8 -22 61 l0 59 330 0 331 0 -3 -57z m517 -408 l0 -460
-255 0 -255 0 -3 340 c-2 187 0 395 3 463 l7 122 252 -2 251 -3 0 -460z
m-2525 430 l0 -25 114 0 c121 0 166 10 166 35 0 13 21 15 135 15 l135 0 0
-248 c0 -180 3 -251 12 -260 9 -9 84 -12 278 -12 l266 0 -4 -40 c-3 -31 -8
-40 -23 -40 -18 0 -19 -9 -19 -145 0 -138 1 -145 20 -145 13 0 20 -7 20 -20 0
-19 7 -20 165 -20 158 0 165 1 165 20 0 13 7 20 20 20 19 0 20 7 20 145 0 136
-1 145 -19 145 -15 0 -20 9 -23 40 l-4 40 288 0 288 0 0 -193 c0 -137 3 -196
12 -205 18 -18 501 -17 517 1 6 9 12 85 14 208 1 117 3 55 5 -157 1 -193 -1
-459 -5 -592 l-6 -242 -153 0 -154 0 -2 223 -3 222 -1147 3 -1148 2 0 324 c0
250 -3 325 -12 329 -7 2 10 8 37 11 229 33 392 197 420 424 l7 52 -239 1
c-131 0 -232 3 -225 6 7 3 12 24 12 54 l0 49 35 0 c31 0 35 -3 35 -25z m360
-157 c0 -75 -59 -187 -139 -266 -76 -74 -153 -110 -273 -126 l-38 -5 0 210 0
209 225 0 225 0 0 -22z m-1471 -216 c59 -31 71 -69 71 -212 0 -143 -12 -181
-71 -212 -31 -17 -66 -18 -454 -18 -364 0 -424 2 -443 16 -21 15 -22 20 -22
214 0 194 1 199 22 214 19 14 79 16 443 16 388 0 423 -1 454 -18z m3761 -547
l0 -425 -45 0 -45 0 0 425 0 425 45 0 45 0 0 -425z m170 0 l0 -425 -45 0 -45
0 0 425 0 425 45 0 45 0 0 -425z m-1402 258 l3 -153 -156 0 -155 0 0 148 c0
82 3 152 7 156 4 3 72 5 152 4 l146 -3 3 -152z m1272 -264 c0 -292 -3 -370
-12 -367 -10 4 -14 89 -16 371 -2 322 0 367 13 367 13 0 15 -47 15 -371z
m-1270 71 l0 -30 -155 0 -155 0 0 30 0 30 155 0 155 0 0 -30z m-2200 -88 c0
-123 100 -278 230 -357 54 -33 160 -64 218 -65 l22 0 1 238 c0 130 3 231 6
225 3 -9 26 -13 64 -13 l59 0 0 -39 c0 -36 -3 -40 -27 -43 l-28 -3 -3 -244
c-2 -256 4 -301 40 -301 16 0 18 -12 18 -125 l0 -125 168 -2 c93 0 145 -4 117
-7 l-50 -6 0 -245 0 -245 45 -3 c30 -2 48 -10 58 -23 13 -18 34 -19 793 -19
l779 0 0 -169 c0 -141 3 -172 16 -185 13 -14 48 -16 224 -16 204 0 209 0 224
22 13 18 16 56 16 205 l0 183 44 0 c54 0 56 4 56 127 l0 96 25 -26 c68 -67
186 -27 201 68 10 68 -34 130 -97 135 -49 4 -68 -1 -98 -26 l-31 -26 0 64 c0
34 -4 68 -8 75 -4 6 -28 13 -52 16 -25 2 33 4 127 5 l173 2 -2 -1162 c-1 -640
-4 -1135 -6 -1100 l-3 62 -68 0 -69 0 -4 45 c-3 41 -1 45 19 45 25 0 30 19 11
38 -19 19 -272 17 -288 -3 -14 -17 -5 -35 18 -35 14 0 17 -8 14 -45 l-4 -45
-84 0 -84 0 0 -275 0 -275 85 0 85 0 0 -104 c0 -95 -2 -104 -20 -109 -24 -6
-25 -20 -4 -41 23 -23 255 -23 278 0 21 21 20 35 -4 41 -18 5 -20 14 -20 109
l0 104 69 0 70 0 4 38 c2 20 4 -191 5 -469 1 -278 -1 -533 -4 -567 l-7 -61
-73 -3 -74 -3 0 208 0 207 -48 0 c-53 0 -137 -22 -193 -51 -56 -28 -146 -115
-175 -170 -22 -39 -32 -49 -53 -49 -21 0 -31 9 -50 45 -28 54 -125 147 -183
176 -56 29 -123 47 -183 51 l-50 2 -3 -209 -2 -210 -70 3 c-59 3 -70 6 -70 22
0 32 -47 41 -200 38 l-145 -3 3 -32 c3 -28 0 -33 -19 -33 l-22 0 6 242 c4 133
7 315 7 405 l0 163 30 0 30 0 0 265 0 265 -30 0 c-32 0 -37 14 -42 115 l-3 50
-122 3 c-115 2 -123 4 -123 22 0 17 -7 20 -45 20 l-45 0 0 145 0 145 -224 0
c-171 0 -225 3 -229 13 -3 9 -7 9 -19 -1 -13 -10 -17 -10 -21 0 -4 10 -7 11
-18 1 -8 -8 -41 -13 -85 -13 -60 0 -94 7 -197 44 -69 25 -128 42 -131 39 -14
-14 -4 -31 21 -38 26 -6 43 -21 43 -37 0 -5 -22 -8 -50 -8 l-50 0 0 -150 0
-150 -50 0 c-38 0 -50 -4 -50 -15 0 -13 -50 -15 -388 -15 -273 0 -391 -3 -399
-11 -8 -8 -13 1 -18 37 -16 115 -57 198 -139 280 -86 85 -163 122 -288 138
l-48 6 0 -237 c0 -184 -3 -234 -12 -225 -8 8 -53 12 -135 12 l-123 0 0 1595 0
1595 35 0 c28 0 35 -4 35 -19 0 -10 10 -22 23 -27 17 -6 10 -8 -30 -11 l-53
-4 0 -415 0 -415 280 3 280 3 0 -231 0 -230 63 7 c160 17 291 111 367 262 16
32 32 79 35 105 12 94 6 87 85 84 l70 -4 0 416 0 416 -290 0 -290 0 0 30 0 30
305 0 c208 0 305 3 305 11 0 5 5 7 10 4 6 -3 10 -23 10 -43z m430 -177 l0
-225 -27 0 c-41 0 -116 25 -169 56 -124 73 -224 229 -224 351 l0 43 210 0 210
0 0 -225z m-1072 188 l-3 -28 -240 0 -240 0 -3 28 -3 27 246 0 246 0 -3 -27z
m1250 -325 l-3 -243 -25 0 -25 0 -3 243 -2 242 30 0 30 0 -2 -242z m-1708 215
c0 -5 -12 -26 -25 -48 -14 -22 -25 -45 -25 -50 0 -6 26 -25 59 -43 l59 -32 14
22 c28 42 58 108 51 108 -5 0 -26 11 -48 25 l-40 24 58 1 57 0 0 -355 0 -355
-130 0 -130 0 0 355 0 355 50 0 c28 0 50 -3 50 -7z m980 -348 l0 -345 -27 0
c-33 0 -47 -9 -56 -32 -6 -16 -26 -18 -232 -18 -214 0 -225 1 -225 19 0 27
-18 31 -151 31 l-119 0 0 345 0 345 405 0 405 0 0 -345z m3120 -75 l0 -220
-1150 0 -1150 0 0 220 0 220 1150 0 1150 0 0 -220z m-3211 -385 c-15 -109 -58
-193 -140 -273 -53 -52 -166 -110 -231 -118 l-48 -7 0 227 0 226 213 0 214 0
-8 -55z m3641 -575 l0 -630 -45 0 -45 0 0 630 0 630 45 0 45 0 0 -630z m170 0
l0 -630 -45 0 -45 0 0 630 0 630 45 0 45 0 0 -630z m-132 -6 c-2 -371 -6 -569
-13 -569 -11 0 -20 1117 -10 1144 21 54 25 -49 23 -575z m32 6 c0 -380 -3
-580 -10 -580 -7 0 -10 200 -10 580 0 380 3 580 10 580 7 0 10 -200 10 -580z
m-224 476 c21 -21 34 -44 34 -60 0 -82 -69 -139 -141 -117 -82 25 -108 121
-48 180 25 26 39 31 76 31 38 0 50 -5 79 -34z m154 -1666 l0 -500 -45 0 -45 0
0 493 c0 272 3 497 7 500 3 4 24 7 45 7 l38 0 0 -500z m170 0 l0 -500 -45 0
-45 0 0 500 0 500 45 0 45 0 0 -500z m-130 0 c0 -384 -2 -440 -15 -440 -13 0
-15 56 -15 440 0 384 2 440 15 440 13 0 15 -56 15 -440z m30 0 c0 -287 -3
-440 -10 -440 -7 0 -10 153 -10 440 0 287 3 440 10 440 7 0 10 -153 10 -440z
m-4265 -104 c145 -68 235 -195 259 -363 l6 -43 -210 0 -210 0 0 226 0 227 43
-7 c23 -4 74 -22 112 -40z m1386 -41 c166 -60 163 -59 154 -45 -4 7 93 10 284
10 l291 0 0 -155 0 -155 -465 0 -465 0 0 156 0 156 91 -4 c88 -4 89 -4 52 11
-34 13 -57 31 -49 38 2 2 22 -4 46 -12 24 -8 45 -14 47 -12 2 2 -25 14 -59 26
-81 28 -106 39 -91 40 7 1 81 -24 164 -54z m2527 -151 c18 -5 22 -13 22 -45
l0 -39 -105 0 -105 0 0 39 c0 29 5 41 18 44 26 7 144 7 170 1z m162 -359 l0
-265 -260 0 -260 0 0 265 0 265 260 0 260 0 0 -265z m-3810 104 c0 -33 22 -58
53 -59 16 0 17 -17 17 -211 0 -126 4 -218 10 -230 7 -12 21 -19 40 -19 l30 0
0 -225 0 -225 -30 0 c-19 0 -33 -7 -40 -19 -6 -12 -10 -107 -10 -240 l0 -221
-60 0 -60 0 0 -57 c0 -71 -6 -66 -19 17 -13 82 -68 192 -123 249 -83 86 -174
130 -295 146 l-53 7 -2 -239 c-1 -131 -3 -212 -5 -180 l-4 57 -94 0 -95 0 0
695 0 695 123 0 c137 1 157 8 157 59 l0 31 230 0 230 0 0 -31z m760 -229 l0
-190 -295 0 -295 0 0 190 0 190 295 0 295 0 0 -190z m575 40 l0 -145 -275 0
-275 0 -3 134 c-1 74 0 141 2 148 4 11 60 13 278 11 l273 -3 0 -145z m440 -40
l0 -185 -207 -3 -208 -2 0 190 0 190 208 -2 207 -3 0 -185z m305 0 l0 -190
-145 0 -145 0 0 190 0 190 145 0 145 0 0 -190z m65 -390 l45 0 0 -210 0 -210
-45 0 -45 0 0 -205 c0 -176 -2 -205 -15 -205 -13 0 -15 29 -15 205 l0 205
-167 1 c-93 1 -259 0 -370 -1 -141 -1 -203 2 -203 9 0 8 -56 11 -175 11 -120
0 -175 -3 -175 -11 0 -7 -38 -10 -117 -9 -65 2 -151 2 -190 1 l-73 -1 -2 -62
-2 -63 -3 55 c-3 30 -10 58 -16 62 -7 4 -95 8 -197 8 -123 0 -180 4 -170 10
13 8 12 10 -3 10 -21 0 -49 24 -40 34 4 3 109 6 235 6 259 0 237 -9 218 91
-32 167 -168 315 -334 363 -30 9 -71 16 -92 16 -30 0 -35 3 -26 12 7 7 12 21
12 31 0 18 8 19 158 17 86 -2 219 -2 295 -1 l137 1 0 53 0 52 290 0 290 0 0
-47 c0 -34 4 -48 14 -48 8 0 16 -7 20 -15 4 -13 35 -15 185 -15 159 0 181 2
190 17 6 12 13 14 23 7 7 -5 76 -8 161 -6 l147 3 2 197 c2 164 3 150 5 -85 l3
-283 45 0z m125 245 c0 -248 -1 -255 -20 -255 -19 0 -20 7 -20 255 0 248 1
255 20 255 19 0 20 -7 20 -255z m1660 -461 l0 -525 -42 3 -43 3 -3 523 -2 522
45 0 45 0 0 -526z m170 1 l0 -525 -45 0 -45 0 0 525 0 525 45 0 45 0 0 -525z
m-130 0 c0 -407 -2 -465 -15 -465 -13 0 -15 58 -15 465 0 407 2 465 15 465 13
0 15 -58 15 -465z m30 0 c0 -303 -3 -465 -10 -465 -7 0 -10 162 -10 465 0 303
3 465 10 465 7 0 10 -162 10 -465z m-332 353 l-3 -103 -100 0 -100 0 -3 103
-3 102 106 0 106 0 -3 -102z m-3392 -52 c125 -33 234 -124 292 -244 19 -40 37
-93 40 -117 l5 -45 -227 0 -226 0 0 210 0 210 33 0 c17 0 55 -6 83 -14z m2589
-520 c75 -20 146 -59 198 -109 39 -39 97 -117 97 -132 0 -3 -68 -5 -151 -5
-84 0 -159 -5 -170 -10 -16 -9 -19 -22 -19 -75 0 -58 -2 -65 -20 -65 -19 0
-20 7 -20 205 0 232 -7 216 85 191z m755 -191 l0 -205 -60 0 -60 0 0 69 c0 54
-4 70 -16 75 -9 3 -67 6 -130 6 l-115 0 23 41 c28 51 125 142 181 170 52 27
114 47 150 48 l27 1 0 -205z m-2280 136 c0 -53 -12 -70 -35 -51 -11 9 -15 9
-15 1 0 -7 -20 -11 -50 -11 -46 0 -50 2 -50 23 0 13 5 28 12 35 20 20 65 14
82 -10 9 -12 16 -17 16 -11 0 21 -31 43 -59 43 -30 0 -57 -23 -63 -55 -2 -15
-12 -21 -41 -23 -21 -2 -45 2 -53 9 -9 7 -14 8 -14 1 0 -7 -24 -11 -60 -10
l-60 1 0 53 0 54 195 0 195 0 0 -49z m-402 -8 l-3 -48 -54 -3 c-29 -2 -61 0
-70 4 -24 11 -71 13 -71 3 0 -5 -29 -9 -65 -9 l-65 0 0 50 0 50 166 0 165 0
-3 -47z m1120 0 l-3 -48 -159 -3 c-117 -2 -162 1 -174 10 -12 11 -16 11 -20 0
-3 -10 -7 -10 -20 0 -12 10 -16 10 -19 1 -4 -10 -43 -13 -154 -13 l-149 0 0
50 0 50 351 0 350 0 -3 -47z m-1478 -158 l0 -175 -205 0 -205 0 0 175 0 175
205 0 205 0 0 -175z m-974 149 c104 -30 221 -129 271 -229 26 -51 40 -98 47
-157 l6 -48 -210 0 -210 0 0 225 c0 257 -8 240 96 209z m1734 -190 l0 -135
-42 3 -43 3 -3 83 -3 82 -109 0 -109 0 -3 -82 -3 -83 -42 -3 -43 -3 0 135 0
136 200 0 200 0 0 -136z m-410 -4 l0 -130 -160 0 -160 0 0 130 0 130 160 0
160 0 0 -130z m1110 0 l0 -130 -345 0 -345 0 0 130 0 130 345 0 345 0 0 -130z
m-800 -50 l0 -80 -100 0 -100 0 0 80 0 80 100 0 100 0 0 -80z m1620 43 c0 -5
55 -7 122 -6 68 2 210 4 316 5 l192 3 0 -62 0 -63 -330 0 -330 0 0 58 c0 32 3
62 7 65 9 9 23 9 23 0z m-315 -93 l0 -25 -140 0 -140 0 -3 28 -3 28 143 -3
143 -3 0 -25z m1113 -74 c6 -46 23 -56 96 -56 52 0 66 -3 66 -15 0 -13 -26
-15 -170 -15 l-170 0 0 -360 0 -360 -210 0 -210 0 0 -275 0 -275 -35 0 -35 0
-2 193 -3 192 -192 3 -193 2 0 160 0 160 165 0 165 0 2 123 c1 130 1 130 -1
310 l-1 117 -165 0 c-158 0 -165 1 -165 20 0 18 7 20 60 20 33 0 60 4 60 10 0
6 7 10 15 10 10 0 15 11 15 35 l0 35 453 -2 452 -3 3 -29z m152 -107 c0 -5 -6
-9 -12 -10 -10 0 -10 -2 0 -6 16 -6 18 -1213 2 -1213 -5 0 -10 -5 -10 -11 0
-5 5 -7 10 -4 6 3 10 1 10 -4 0 -7 -54 -11 -160 -11 -106 0 -160 4 -160 11 0
5 5 7 10 4 6 -3 10 -1 10 4 0 6 -4 11 -10 11 -16 0 -14 1210 3 1211 10 0 10 2
0 6 -39 15 4 21 147 21 91 0 160 -4 160 -9z m-910 -264 l0 -265 -155 0 -155 0
0 265 0 265 155 0 155 0 0 -265z m-700 -255 c0 -296 -2 -340 -15 -340 -11 0
-15 -11 -15 -40 0 -29 4 -40 15 -40 13 0 15 -24 15 -155 l0 -155 -570 0 -570
0 0 535 0 535 570 0 570 0 0 -340z m1260 -265 l0 -75 -35 0 c-21 0 -48 9 -66
22 -23 17 -44 23 -89 23 -45 0 -66 -6 -89 -23 -20 -14 -44 -22 -71 -22 l-40 0
0 75 0 75 195 0 195 0 0 -75z m0 -280 l0 -195 -195 0 -195 0 0 195 0 195 195
0 195 0 0 -195z m-487 3 c3 -100 4 -185 1 -190 -7 -10 -371 -10 -378 0 -3 5
-2 90 1 190 l6 182 182 0 182 0 6 -182z"/>
<path d="M4000 10681 c0 -81 3 -100 16 -105 9 -3 89 -6 179 -6 90 0 170 3 179
6 13 5 16 24 16 105 l0 99 -195 0 -195 0 0 -99z m378 -3 l-3 -93 -180 0 -180
0 -3 93 -3 92 186 0 186 0 -3 -92z"/>
<path d="M376 10619 c-14 -17 -26 -35 -26 -40 0 -5 -9 -9 -20 -9 -11 0 -20 -7
-20 -15 0 -8 9 -15 19 -15 11 0 23 -9 26 -20 16 -49 42 -60 147 -60 92 0 101
2 123 25 35 34 35 106 0 140 -22 23 -31 25 -124 25 -99 0 -99 0 -125 -31z
m241 -1 c30 -28 32 -95 3 -126 -19 -20 -31 -22 -117 -22 -76 0 -100 4 -115 17
-22 20 -24 53 -3 53 8 0 15 7 15 15 0 8 -7 15 -15 15 -20 0 -19 29 2 52 13 15
32 18 111 18 84 0 98 -3 119 -22z"/>
<path d="M4725 8712 c-84 -18 -124 -126 -70 -191 74 -87 202 -47 212 66 4 42
1 52 -24 81 -28 33 -79 52 -118 44z m83 -25 c77 -37 62 -169 -22 -197 -96 -31
-179 68 -132 158 28 54 91 70 154 39z"/>
<path d="M4185 8467 c-3 -7 -4 -78 -3 -157 l3 -145 100 0 100 0 0 155 0 155
-98 3 c-74 2 -99 0 -102 -11z m195 -147 l0 -150 -95 0 -95 0 0 150 0 150 95 0
95 0 0 -150z"/>
<path d="M3283 7205 c-51 -24 -93 -46 -93 -49 0 -5 59 -131 67 -145 4 -6 193
81 193 89 0 14 -63 150 -69 149 -3 0 -48 -20 -98 -44z"/>
<path d="M395 6948 c-3 -7 -6 -49 -7 -93 -3 -79 -3 -80 -30 -83 -39 -5 -37
-32 2 -32 l30 0 0 -85 c0 -83 1 -86 26 -95 15 -6 170 -10 370 -10 463 0 444
-9 444 213 l0 139 -29 29 -29 29 -387 0 c-299 0 -387 -3 -390 -12z m786 -11
c32 -25 39 -56 39 -182 0 -140 -8 -166 -62 -184 -33 -12 -694 -16 -735 -5 -22
6 -23 12 -23 90 l0 84 30 0 c20 0 30 5 30 15 0 10 -10 15 -30 15 l-30 0 0 90
0 90 383 0 c284 -1 386 -4 398 -13z"/>
<path d="M1317 5133 c-4 -3 -7 -25 -7 -47 0 -29 -6 -47 -20 -59 -20 -17 -20
-29 -20 -725 0 -696 0 -709 20 -727 13 -12 20 -31 20 -55 0 -20 5 -41 12 -48
17 -17 499 -17 516 0 7 7 12 29 12 50 0 27 4 38 15 38 13 0 15 89 15 740 0
715 -1 740 -19 740 -14 0 -17 6 -13 25 2 13 1 36 -2 50 l-6 25 -259 0 c-142 0
-261 -3 -264 -7z m518 -48 l0 -40 -255 0 -255 0 -3 28 c-7 59 -15 58 260 55
l253 -3 0 -40z m-135 -415 l0 -360 -210 0 -210 0 0 348 c0 257 3 351 12 360 9
9 69 12 210 12 l198 0 0 -360z m170 -370 l0 -731 -77 3 -78 3 -3 728 -2 727
80 0 80 0 0 -730z m-170 -365 l0 -365 -191 0 c-112 0 -198 4 -210 10 -18 10
-19 25 -19 365 l0 355 210 0 210 0 0 -365z m135 -420 l0 -40 -255 0 -255 0 -3
28 c-7 59 -15 58 260 55 l253 -3 0 -40z"/>
<path d="M320 4550 l0 -540 263 0 c191 0 266 3 275 12 8 8 12 63 12 180 l0
168 111 0 c101 0 111 2 116 19 3 11 13 21 24 24 18 5 19 16 19 171 0 156 -1
166 -19 166 -10 0 -21 9 -24 20 -5 18 -14 20 -116 20 l-111 0 0 134 c0 109 -3
138 -16 150 -13 14 -52 16 -275 16 l-259 0 0 -540z m270 0 l0 -530 -130 0
-130 0 0 530 0 530 130 0 130 0 0 -530z m258 518 c9 -9 12 -137 12 -514 0
-276 -3 -509 -6 -518 -5 -13 -26 -16 -130 -16 l-124 0 0 530 0 530 118 0 c78
0 122 -4 130 -12z m202 -483 l0 -155 -90 0 -90 0 0 155 0 155 90 0 90 0 0
-155z m70 0 l0 -155 -30 0 -30 0 0 155 0 155 30 0 30 0 0 -155z"/>
<path d="M430 4796 c0 -18 -7 -39 -15 -46 -12 -10 -15 -45 -15 -195 0 -153 2
-184 15 -189 9 -3 15 -19 15 -41 0 -24 4 -35 15 -35 13 0 15 37 15 270 0 233
-2 270 -15 270 -10 0 -15 -10 -15 -34z"/>
<path d="M4713 5018 c-46 -12 -83 -61 -83 -110 0 -75 47 -123 121 -123 50 0
90 31 108 82 18 50 9 88 -29 123 -33 31 -71 40 -117 28z m120 -48 c70 -77 -12
-201 -114 -171 -81 25 -108 121 -49 180 49 49 113 45 163 -9z"/>
<path d="M3237 4730 c-71 -22 -97 -44 -97 -81 0 -30 4 -35 60 -75 22 -16 39
-38 45 -62 14 -48 41 -54 50 -12 6 26 11 30 33 27 15 -2 39 -1 54 4 23 6 28 3
38 -22 7 -16 15 -29 19 -29 16 0 31 26 31 55 0 23 10 41 40 70 59 58 52 115
-18 135 -59 16 -190 11 -255 -10z"/>
<path d="M3701 4716 c-88 -23 -102 -89 -31 -142 30 -22 41 -39 47 -69 10 -47
39 -60 49 -22 5 22 12 26 60 29 51 3 54 1 65 -25 16 -38 43 -32 47 10 2 24 16
43 49 73 51 45 61 84 29 119 -35 38 -215 54 -315 27z m237 -7 c62 -16 84 -35
80 -73 -3 -27 -8 -32 -42 -37 -27 -4 -49 -17 -73 -44 -32 -35 -37 -37 -81 -32
-36 4 -51 12 -72 37 -19 23 -38 34 -66 39 -34 6 -39 10 -42 37 -2 19 3 36 15
46 38 34 192 48 281 27z"/>
<path d="M3790 4690 c-30 -30 -28 -103 4 -135 44 -44 96 -6 96 72 0 48 -26 83
-60 83 -11 0 -29 -9 -40 -20z"/>
<path d="M3360 3095 l0 -515 243 2 242 3 0 510 0 510 -242 3 -243 2 0 -515z
m450 492 c0 -8 7 -17 15 -21 14 -5 15 -65 15 -491 -1 -297 -5 -485 -11 -485
-5 0 -9 6 -10 13 0 10 -2 10 -6 0 -3 -10 -58 -13 -224 -13 l-219 0 0 490 c0
385 3 490 13 491 10 0 10 2 0 6 -40 16 10 21 207 22 185 2 220 0 220 -12z"/>
<path d="M420 5935 l0 -105 85 0 85 0 0 105 0 105 -85 0 -85 0 0 -105z"/>
<path d="M485 5766 c-33 -6 -59 -14 -59 -19 1 -4 5 -33 9 -65 4 -31 9 -60 11
-63 4 -6 130 14 138 22 8 8 -19 132 -29 135 -5 1 -37 -3 -70 -10z"/>
<path d="M987 6203 c-14 -13 -7 -43 11 -43 15 0 17 -11 14 -115 l-3 -116 118
3 118 3 0 113 c0 100 2 112 18 112 20 0 23 20 5 38 -13 13 -269 18 -281 5z
m248 -158 l0 -100 -107 -3 -108 -3 0 99 c0 54 3 102 7 106 4 4 52 5 107 4
l101 -3 0 -100z"/>
<path d="M2080 3105 c-10 -12 -36 -15 -114 -15 -66 0 -106 -4 -114 -12 -14
-14 -17 -185 -4 -206 7 -9 39 -12 128 -10 l119 3 3 109 c1 61 7 115 12 121 10
12 4 25 -10 25 -4 0 -13 -7 -20 -15z m-5 -25 c-15 -16 -31 -27 -35 -25 -12 7
-43 -33 -35 -45 5 -8 20 1 45 25 l39 38 0 -102 1 -102 -118 3 -117 3 0 100 0
100 89 3 c55 2 92 -1 96 -8 4 -6 16 0 30 15 13 14 26 25 29 25 2 0 -8 -13 -24
-30z"/>
<path d="M2127 3083 c-4 -3 -7 -55 -7 -115 l0 -109 123 3 122 3 3 104 c2 77
-1 107 -10 113 -16 9 -222 11 -231 1z m231 -110 l3 -103 -116 0 -115 0 0 56
c0 34 4 53 10 49 6 -3 7 1 4 9 -4 11 0 16 11 16 12 0 15 -5 10 -17 -5 -14 -3
-15 6 -6 15 15 3 33 -22 33 -15 0 -19 7 -19 35 l0 36 113 -3 112 -3 3 -102z"/>
</g>
</svg>
