<?xml version="1.0" standalone="no"?>
<!DOCTYPE svg PUBLIC "-//W3C//DTD SVG 20010904//EN"
 "http://www.w3.org/TR/2001/REC-SVG-20010904/DTD/svg10.dtd">
<svg version="1.0" xmlns="http://www.w3.org/2000/svg"
 width="300.000000pt" height="645.000000pt" viewBox="0 0 300.000000 645.000000"
 preserveAspectRatio="xMidYMid meet">
<metadata>
Created by potrace 1.10, written by Peter Selinger 2001-2011
</metadata>
<g transform="translate(0.000000,645.000000) scale(0.100000,-0.100000)"
fill="#000000" stroke="none">
<path d="M24 6401 c-2 -2 -4 -1259 -4 -2793 l0 -2788 135 0 c101 0 135 3 136
13 1 6 5 91 8 187 l7 175 2 -137 2 -138 123 0 122 0 13 -29 c7 -17 12 -38 10
-48 -3 -17 11 -18 230 -20 l233 -1 -1 -396 -1 -396 970 0 971 0 0 2473 c0
1359 0 2591 0 2737 0 146 -1 466 -3 713 l-2 447 -1473 3 c-811 1 -1476 0
-1478 -2z m2936 -201 l0 -180 -64 0 -63 0 -5 110 c-2 60 -7 112 -9 114 -8 8
-2117 11 -2125 4 -4 -4 -7 -183 -8 -398 -1 -301 -4 -390 -13 -390 -10 0 -12
46 -9 198 2 108 1 286 -2 395 l-5 197 -249 0 -248 0 -1 -62 c0 -64 0 -1449 1
-1480 0 -17 22 -18 310 -18 l310 0 0 155 0 155 -60 0 -60 0 0 85 c0 69 3 85
15 85 12 0 15 -14 15 -69 l0 -70 46 -7 c25 -3 67 -4 95 -2 37 4 49 2 49 -8 0
-9 -12 -14 -35 -14 l-35 0 -2 -202 c-1 -112 -2 -243 -2 -292 -1 -62 -5 -90
-13 -93 -10 -4 -13 26 -13 126 l0 131 -310 0 -310 0 -1 -42 c-5 -176 -7 -820
-3 -851 l6 -37 306 2 307 3 3 168 c2 139 5 167 17 167 13 0 15 -27 15 -170 0
-94 3 -169 8 -169 21 4 42 -2 42 -11 0 -6 -123 -10 -350 -10 l-350 0 0 -940 0
-940 75 0 c43 0 75 -4 75 -10 0 -6 -32 -10 -75 -10 l-75 0 0 -420 0 -420 55 0
55 0 0 -65 0 -65 -109 0 -110 0 0 2765 0 2765 1455 0 1454 0 0 -180z m-1230
-85 l0 -125 -515 0 -515 0 0 125 0 125 515 0 515 0 0 -125z m196 100 c31 -31
28 -61 -9 -89 -26 -19 -30 -19 -55 -5 -37 20 -43 80 -10 103 31 22 45 20 74
-9z m379 15 l-260 -5 -5 -365 -6 -365 -1 373 -2 372 267 -2 267 -2 -260 -6z
m318 -2 c4 -10 8 -9 17 2 8 11 13 12 16 3 3 -7 13 -9 21 -6 15 6 15 4 0 -17
-23 -34 -21 -57 8 -85 29 -30 68 -32 95 -5 11 11 22 20 24 20 3 0 5 -211 5
-470 l0 -470 -149 0 -149 0 -3 33 -3 32 -195 0 -195 0 -3 -32 -3 -33 -435 0
-434 0 0 -80 0 -80 -30 0 c-27 0 -30 3 -30 32 0 101 -121 220 -235 230 l-40 3
-1 -130 0 -130 6 125 6 125 2 -127 2 -128 -105 0 -104 0 -3 78 c-3 71 -5 77
-25 80 -22 3 -23 7 -23 113 0 100 2 109 19 109 26 0 31 19 31 106 l0 74 95 0
95 0 0 190 0 190 345 0 345 0 0 -215 0 -215 140 0 140 0 -2 223 -3 222 -62 3
-63 3 0 114 0 115 49 0 49 0 -14 -29 c-36 -72 53 -135 113 -79 25 23 29 57 13
89 -10 17 -7 19 30 19 l40 0 0 -380 0 -379 33 -6 c17 -3 140 -5 272 -3 l240 3
3 384 c2 334 4 382 17 377 8 -3 15 -1 15 4 0 14 17 12 23 -2z m153 -10 c18
-14 24 -16 15 -5 -12 15 -11 17 3 17 25 0 11 -69 -20 -97 -32 -29 -49 -29 -80
2 -29 29 -26 58 8 88 26 22 39 22 74 -5z m-2136 -108 l0 -120 -75 0 -75 0 0
-85 0 -85 75 0 c73 0 75 -1 75 -25 0 -16 -6 -25 -15 -25 -21 0 -22 -132 -1
-153 10 -9 16 -43 18 -101 l3 -86 -112 0 c-101 0 -113 -2 -113 -17 0 -92 95
-200 190 -217 l35 -6 -3 -90 -3 -90 -230 0 c-146 0 -229 4 -229 10 0 6 38 10
95 10 l95 0 1 103 c2 202 -3 332 -11 341 -5 5 -47 7 -94 4 l-86 -4 0 73 c0 82
-2 80 92 74 66 -4 127 44 113 89 -12 39 -56 62 -110 58 -50 -3 -50 -3 -53 30
-2 22 -8 32 -20 32 -12 0 -13 -3 -4 -12 18 -18 15 -40 -5 -36 -10 2 -18 9 -17
16 1 6 2 55 3 107 l1 94 93 3 c67 2 91 6 90 16 -2 6 3 11 10 10 8 -2 13 12 15
39 5 67 -18 83 -123 83 l-85 0 0 40 0 40 230 0 230 0 0 -120z m1900 -250 l0
-360 -245 0 -245 0 0 360 0 360 245 0 245 0 0 -360z m17 -182 c-1 -101 -2 -19
-2 182 0 201 1 283 2 183 2 -101 2 -265 0 -365z m-2257 455 c-25 -2 -55 -5
-66 -8 -26 -6 -40 -35 -22 -48 9 -6 6 -7 -9 -4 -13 3 -23 4 -23 2 0 -8 46 -52
60 -58 8 -3 -4 -6 -27 -6 l-43 -1 0 65 0 65 88 -2 c48 -1 67 -3 42 -5z m75
-58 c0 -18 -2 -33 -5 -33 -3 1 -13 -2 -23 -7 -15 -6 -16 -10 -5 -16 10 -7 9
-9 -4 -9 -10 0 -18 5 -18 10 0 6 -20 10 -44 10 -26 0 -48 6 -56 15 -9 10 -9
15 -1 15 6 0 11 7 11 15 0 8 -5 15 -11 15 -8 0 -8 4 1 15 13 16 128 26 145 12
5 -4 10 -23 10 -42z m2493 -322 l-3 -248 -22 -3 -23 -3 0 250 0 251 25 0 25 0
-2 -247z m92 -1 l0 -248 -40 0 c-28 -1 -40 4 -40 14 0 9 7 13 20 9 20 -5 20 0
20 223 0 223 0 228 -20 223 -13 -4 -20 0 -20 10 0 10 11 15 40 15 l40 1 0
-247z m-2311 166 c1 -37 -3 -63 -11 -71 -17 -15 -109 -16 -125 0 -7 6 -13 32
-13 58 0 64 13 75 86 73 l61 -1 2 -59z m236 -123 l0 -185 -92 0 -93 0 0 185 0
185 93 0 92 0 0 -185z m975 -25 l0 -210 -130 0 -130 0 0 210 0 210 130 0 130
0 0 -210z m1027 -127 c-1 -60 -3 -11 -3 107 0 118 2 167 3 108 2 -60 2 -156 0
-215z m20 0 c-1 -60 -3 -11 -3 107 0 118 2 167 3 108 2 -60 2 -156 0 -215z
m-2687 52 c0 -63 -1 -65 -25 -65 -24 0 -25 2 -25 65 0 63 1 65 25 65 24 0 25
-2 25 -65z m132 38 c41 -37 6 -93 -58 -93 -56 0 -64 8 -64 60 0 42 3 49 23 53
34 7 79 -1 99 -20z m298 -38 c0 -51 -3 -65 -15 -65 -12 0 -15 14 -15 65 0 51
3 65 15 65 12 0 15 -14 15 -65z m1783 -212 c-72 -2 -194 -2 -270 0 -76 1 -16
3 132 3 149 0 211 -2 138 -3z m527 -243 l0 -240 -64 0 -63 0 -5 76 c-3 42 -3
150 0 240 l5 164 63 0 64 0 0 -240z m-2608 115 c1 -58 1 -152 0 -210 l-4 -105
-84 0 c-83 0 -84 0 -84 25 0 23 3 24 73 27 l72 3 0 160 0 160 -72 3 c-65 3
-73 5 -73 22 0 18 7 20 84 20 l84 0 4 -105z m251 58 c-29 -2 -78 -2 -110 0
-32 2 -8 3 52 3 61 0 87 -1 58 -3z m-393 -72 c0 -46 -4 -71 -12 -75 -10 -5
-10 -7 0 -12 8 -4 12 -30 12 -80 0 -59 -3 -74 -15 -74 -13 0 -15 24 -15 155 0
131 2 155 15 155 12 0 15 -14 15 -69z m100 -81 l0 -150 -45 0 -45 0 0 59 c0
54 2 60 23 63 16 2 22 10 22 28 0 19 -5 25 -22 24 -22 -1 -23 3 -23 63 l0 63
45 0 45 0 0 -150z m340 40 l0 -100 -27 6 c-86 20 -152 76 -177 150 l-15 44
110 0 109 0 0 -100z m382 -36 c45 -23 106 -94 123 -142 28 -84 31 -82 -102
-82 l-118 0 0 126 0 125 35 -6 c19 -4 47 -13 62 -21z m1277 -16 l179 3 4 -31
5 -30 -189 0 -188 0 1 38 c0 20 2 33 5 27 2 -6 70 -9 183 -7z m481 -80 c0 -10
-152 -12 -732 -10 -403 1 -743 0 -755 -3 l-23 -5 0 -230 c0 -143 -4 -230 -10
-230 -6 0 -11 62 -12 153 -3 149 -3 152 -25 155 -32 5 -30 32 2 32 24 0 25 2
25 75 l0 75 765 0 c605 0 765 -3 765 -12z m-680 -38 c0 -6 -75 -10 -205 -10
l-205 0 0 -235 0 -235 435 0 435 0 0 235 0 235 -40 0 c-33 0 -40 -3 -40 -20 0
-18 -9 -19 -185 -22 l-185 -3 0 33 0 32 345 0 346 0 -2 -91 c-1 -68 -4 -87
-12 -73 -25 49 -74 58 -112 19 -14 -13 -25 -36 -25 -50 0 -33 42 -75 75 -75
14 0 37 11 51 25 l24 24 -1 -304 -1 -305 -229 0 -229 0 0 95 0 95 -267 -2
-268 -3 -3 -87 c-2 -56 1 -88 8 -88 6 0 10 31 10 80 l0 80 255 0 255 0 0 -92
0 -91 -416 7 c-345 6 -419 9 -431 21 -21 21 -153 21 -153 0 0 -8 -9 -15 -20
-15 -16 0 -20 7 -20 35 l0 35 131 0 132 0 -6 51 c-14 114 -130 228 -232 229
l-30 0 3 240 3 240 404 0 c263 0 405 -3 405 -10z m-393 -357 c-1 -65 -3 -14
-3 112 0 127 2 180 3 118 2 -62 2 -165 0 -230z m823 122 l0 -215 -405 0 -405
0 0 205 0 205 190 0 c163 0 190 -2 190 -15 0 -13 26 -15 198 -13 196 3 197 3
200 26 2 12 10 22 18 22 12 0 14 -35 14 -215z m17 -122 c-1 -65 -3 -14 -3 112
0 127 2 180 3 118 2 -62 2 -165 0 -230z m-1387 238 c0 -20 18 -31 51 -31 18 0
19 -9 19 -161 0 -152 1 -161 20 -166 19 -5 20 -14 20 -140 0 -130 -1 -134 -20
-128 -19 6 -20 2 -20 -104 0 -104 1 -111 20 -111 19 0 20 -7 20 -130 0 -123
-1 -130 -20 -130 -18 0 -20 -7 -20 -75 l0 -75 -41 0 c-36 0 -40 -2 -34 -20 6
-19 2 -20 -128 -20 -125 0 -135 1 -140 19 -3 13 -15 21 -37 23 l-33 3 2 160
c1 88 -1 168 -4 178 -4 9 -16 17 -26 17 -18 0 -19 9 -19 133 0 132 0 134 23
133 22 -1 22 1 24 119 1 115 2 120 23 123 14 2 27 -4 37 -17 17 -25 45 -27 63
-6 15 18 6 61 -16 69 -17 7 -54 -10 -54 -24 0 -6 -12 -10 -27 -10 l-28 0 0
170 0 169 40 3 c35 3 40 6 37 26 -3 22 -3 22 132 22 127 0 136 -1 136 -19z
m1617 -38 c32 -49 -32 -111 -82 -79 -41 27 -37 89 7 105 31 11 57 3 75 -26z
m-2222 10 c-198 -7 -385 -7 -385 0 0 4 105 6 233 5 127 -1 196 -3 152 -5z
m195 -137 l0 -134 -289 -2 c-270 -1 -290 1 -294 17 -11 42 -6 221 7 232 8 7
102 12 257 14 134 1 261 3 282 5 l37 2 0 -134z m2108 -118 l2 -248 -25 0 -25
0 0 251 0 250 23 -3 22 -3 3 -247z m92 2 l0 -249 -40 1 c-29 0 -40 5 -40 15 0
10 7 14 20 10 20 -5 20 0 20 223 0 223 0 228 -20 223 -13 -3 -20 0 -20 9 0 9
13 14 40 15 l40 2 0 -249z m-73 -107 c-1 -60 -3 -11 -3 107 0 118 2 167 3 108
2 -60 2 -156 0 -215z m20 0 c-1 -60 -3 -11 -3 107 0 118 2 167 3 108 2 -60 2
-156 0 -215z m-564 40 c-111 -2 -295 -2 -410 0 -114 1 -23 2 202 2 226 0 319
-1 208 -2z m-1397 -18 c3 -8 -1 -22 -10 -30 -15 -15 -17 -15 -32 0 -20 20 -11
45 16 45 11 0 23 -7 26 -15z m-186 -9 c0 -7 -9 -16 -20 -19 -17 -4 -20 -14
-20 -71 0 -55 3 -68 20 -78 13 -9 20 -24 20 -45 l0 -33 -130 0 -130 0 0 -32
c2 -111 108 -229 219 -244 l46 -6 -3 -174 c-3 -167 -4 -174 -23 -174 -19 0
-19 1 -5 22 12 16 16 47 16 111 0 80 -2 90 -25 113 l-25 25 -260 -3 -260 -3 0
38 0 37 95 0 94 0 3 63 c2 34 2 97 0 140 l-4 77 -94 0 -94 0 0 35 c0 38 8 41
91 36 74 -4 133 45 111 94 -15 32 -65 57 -110 54 -77 -5 -92 -1 -92 26 l0 25
290 0 c240 0 290 -2 290 -14z m627 -7 c66 -28 119 -82 143 -147 12 -30 19 -57
16 -59 -3 -3 -61 -6 -130 -7 l-126 -1 0 117 0 118 24 0 c13 0 46 -9 73 -21z
m-617 -84 c0 -51 -3 -65 -15 -65 -12 0 -15 14 -15 65 0 51 3 65 15 65 12 0 15
-14 15 -65z m-550 -20 c0 -63 -1 -65 -25 -65 -24 0 -25 2 -25 65 0 63 1 65 25
65 24 0 25 -2 25 -65z m132 38 c23 -21 23 -55 -1 -77 -14 -12 -32 -16 -67 -14
-49 3 -49 3 -52 42 -2 21 -1 44 2 52 8 20 94 18 118 -3z m2608 -353 l0 -251
-66 3 -65 3 -2 142 c-1 78 -6 145 -10 150 -9 9 -1343 14 -1464 5 -72 -5 -73
-5 -73 -33 0 -16 -4 -29 -10 -29 -6 0 -10 33 -10 80 0 47 4 80 10 80 6 0 10
-15 10 -34 0 -33 1 -33 53 -39 76 -7 1477 -1 1485 8 4 3 9 42 11 86 l3 79 64
0 64 0 0 -250z m-1450 183 c-109 -7 -220 -7 -220 0 0 4 60 6 133 5 72 -1 112
-3 87 -5z m-802 -20 c-38 -2 -98 -2 -135 0 -38 2 -7 3 67 3 74 0 105 -1 68 -3z
m-356 -60 c2 -66 -3 -196 -7 -201 -2 -2 -42 0 -89 4 l-86 7 0 108 0 109 45 0
c45 0 45 0 25 -20 -11 -11 -20 -27 -20 -35 0 -9 -6 -12 -15 -9 -8 4 -15 1 -15
-5 0 -6 7 -11 15 -11 8 0 15 -4 15 -10 0 -5 -7 -10 -15 -10 -8 0 -15 -4 -15
-10 0 -5 7 -10 15 -10 8 0 15 -4 15 -10 0 -5 -7 -10 -15 -10 -8 0 -15 -4 -15
-10 0 -5 6 -10 13 -10 8 0 19 -11 25 -24 5 -13 20 -26 31 -29 25 -6 55 19 47
40 -3 8 -2 12 3 8 5 -3 12 8 16 25 8 38 -3 92 -17 84 -7 -5 -8 -2 -3 5 4 7 -2
22 -16 37 -18 19 -33 24 -71 24 -26 0 -48 5 -48 10 0 6 37 10 90 10 l90 0 2
-57z m418 -74 l0 -122 -42 7 c-103 17 -186 99 -212 209 l-6 27 130 0 130 0 0
-121z m710 76 c0 -12 -14 -15 -65 -15 -51 0 -65 3 -65 15 0 12 14 15 65 15 51
0 65 -3 65 -15z m-1192 -26 c17 -31 10 -116 -11 -136 -13 -13 -19 -14 -31 -3
-21 16 -21 70 -1 70 8 0 15 5 15 10 0 6 -7 10 -15 10 -18 0 -21 50 -3 68 16
16 30 11 46 -19z m1192 -54 c0 -12 -14 -15 -65 -15 -51 0 -65 3 -65 15 0 12
14 15 65 15 51 0 65 -3 65 -15z m630 -25 c0 -25 5 -40 13 -41 6 0 45 0 85 1
57 1 72 -2 72 -13 0 -8 7 -20 15 -27 12 -10 18 -10 32 1 9 8 24 13 33 11 9 -1
23 4 30 13 8 9 29 15 56 15 l44 0 0 -110 0 -110 -410 0 -410 0 0 150 0 150
220 0 220 0 0 -40z m380 10 c0 -35 7 -34 -237 -35 l-133 0 0 33 0 32 185 0
185 0 0 -30z m305 -240 l0 -265 -145 0 -145 0 -1 260 c-1 143 0 263 3 268 2 4
68 6 146 5 l142 -3 0 -265z m-1455 245 c0 -12 14 -15 69 -15 49 0 74 5 85 15
10 11 36 15 88 15 l73 0 -4 -125 c-1 -69 0 -137 3 -150 l6 -25 155 0 c148 0
155 -1 155 -20 0 -11 -4 -20 -10 -20 -6 0 -10 -35 -10 -85 0 -50 4 -85 10 -85
6 0 10 -7 10 -15 0 -12 18 -15 100 -15 82 0 100 3 100 15 0 8 5 15 10 15 6 0
10 35 10 85 0 50 -4 85 -10 85 -5 0 -10 9 -10 20 0 19 7 20 160 20 l159 0 3
-117 3 -118 157 0 158 0 -1 -222 0 -223 -90 0 -89 0 0 130 0 130 -665 0 -664
0 -3 190 -3 190 27 0 c14 0 55 15 90 33 81 42 135 115 145 195 l6 52 -132 0
-131 0 0 30 c0 23 4 30 20 30 11 0 20 -7 20 -15z m148 -62 c-38 -2 -98 -2
-135 0 -38 2 -7 3 67 3 74 0 105 -1 68 -3z m62 -22 c0 -5 -7 -28 -15 -51 -31
-89 -113 -158 -207 -174 l-38 -7 0 121 0 120 130 0 c72 0 130 -4 130 -9z
m-835 -146 c23 -22 25 -32 25 -106 0 -71 -3 -86 -22 -106 -21 -23 -23 -23
-273 -23 -182 0 -254 3 -263 12 -16 16 -16 220 0 236 9 9 81 12 260 12 l249 0
24 -25z m2245 -300 l0 -245 -40 0 c-23 0 -40 5 -40 11 0 6 9 9 20 6 20 -5 20
0 20 226 l0 232 -25 0 -25 0 0 -237 0 -238 -25 0 -25 0 0 245 0 245 70 0 70 0
0 -245z m-800 150 l0 -85 -90 0 -90 0 0 85 0 85 90 0 90 0 0 -85z m727 -252
c-1 -60 -3 -11 -3 107 0 118 2 167 3 108 2 -60 2 -156 0 -215z m20 0 c-1 -59
-3 -13 -3 102 0 116 2 164 3 108 2 -56 2 -151 0 -210z m-940 185 c-2 -24 -4
-7 -4 37 0 44 2 63 4 43 2 -21 2 -57 0 -80z m210 0 c-2 -24 -4 -7 -4 37 0 44
2 63 4 43 2 -21 2 -57 0 -80z m-897 -218 l0 -320 769 0 769 0 6 23 c3 12 6 55
6 95 l0 72 65 0 66 0 -3 -107 -3 -108 -175 2 c-96 1 -478 2 -847 3 l-673 0 -2
248 -3 247 -32 3 c-35 3 -46 22 -14 22 45 0 51 9 51 76 0 36 4 64 10 64 6 0
10 -113 10 -320z m880 175 c0 -12 -17 -15 -90 -15 -73 0 -90 3 -90 15 0 12 17
15 90 15 73 0 90 -3 90 -15z m-1640 -45 c0 -19 -7 -20 -165 -20 l-165 0 0
-240 0 -240 165 0 165 0 -2 -127 -2 -128 -6 125 -6 125 0 -130 1 -130 40 3
c57 5 116 33 159 78 48 49 65 82 73 139 l6 45 41 0 41 0 -3 240 -3 240 -164 0
c-138 0 -165 2 -165 15 0 12 30 15 179 17 l179 3 6 -46 c15 -111 133 -217 244
-219 l32 0 -2 128 -2 127 -6 -125 -6 -125 -2 130 -2 130 45 -3 c37 -3 45 -8
45 -24 0 -11 -8 -22 -20 -25 -19 -5 -20 -14 -20 -143 0 -147 4 -170 27 -170
11 0 14 -14 12 -70 l-2 -70 786 0 787 0 0 -57 c0 -48 -2 -54 -13 -40 -22 29
-65 39 -97 22 l-29 -15 -3 38 c-3 34 -6 37 -33 37 -27 0 -31 -4 -35 -35 l-5
-35 -575 0 -575 0 -5 35 c-4 31 -8 35 -35 35 l-30 0 -3 -142 -3 -143 26 0 c15
0 33 -7 41 -15 13 -13 78 -15 459 -15 l444 0 3 -102 3 -103 120 -3 c66 -1 126
2 134 7 10 7 13 35 12 120 l-2 111 31 0 30 0 0 62 c0 59 1 60 18 45 37 -33 97
-16 115 33 3 8 6 -34 6 -93 l1 -108 -22 25 c-47 52 -128 25 -128 -42 0 -67 88
-98 129 -46 l20 26 1 -436 0 -436 -40 0 c-36 0 -40 3 -40 24 0 13 5 26 12 28
6 2 8 10 4 16 -11 19 -176 16 -176 -2 0 -8 4 -16 10 -18 5 -1 7 -13 4 -25 -5
-20 -13 -23 -50 -23 l-44 0 0 -160 0 -160 44 0 44 0 4 -57 c2 -32 0 -59 -4
-61 -14 -6 -8 -30 8 -36 9 -3 44 -6 79 -6 46 0 66 4 76 17 11 13 11 17 2 20
-9 3 -13 25 -13 64 l0 59 40 0 41 0 -1 -305 -2 -305 -44 0 -44 0 0 120 0 120
-37 0 c-73 -1 -173 -64 -209 -133 -19 -36 -39 -34 -54 4 -26 62 -136 129 -212
129 l-28 0 0 -120 0 -120 -38 0 c-26 0 -41 6 -50 20 -11 18 -23 20 -101 20
-50 0 -92 -3 -94 -7 -3 -5 35 -6 84 -5 75 3 89 2 89 -11 0 -13 -18 -16 -96
-19 -53 -2 -96 -2 -97 -1 -1 1 -1 105 1 232 3 222 3 231 22 231 19 0 20 8 20
155 0 148 -1 155 -20 155 -17 0 -20 7 -20 45 l0 45 -75 0 c-60 0 -75 3 -75 15
0 9 -9 15 -25 15 -25 0 -25 1 -25 85 l0 85 -132 1 c-73 1 -162 0 -198 -1 -49
-1 -83 5 -132 23 -36 14 -69 23 -72 20 -14 -14 -4 -25 18 -21 17 3 23 1 19 -8
-2 -7 -17 -14 -31 -16 -27 -3 -27 -3 -27 -91 l0 -87 -27 0 c-16 0 -28 -4 -28
-10 0 -5 -91 -10 -230 -12 l-230 -3 0 30 c-1 41 -35 113 -73 154 -40 42 -121
81 -169 81 l-38 0 0 -130 0 -130 -76 0 -76 0 6 488 c4 268 3 573 -1 677 -5
105 -7 299 -5 433 3 233 3 242 22 242 11 0 20 -4 20 -10 0 -5 5 -10 10 -10 6
0 10 7 10 15 0 13 22 15 140 15 133 0 140 -1 140 -20z m620 -110 c0 -71 -4
-130 -8 -130 -29 0 -106 37 -142 67 -46 39 -90 120 -90 166 l0 27 120 0 120 0
0 -130z m-294 14 l1 -49 -4 45 c-2 24 -10 48 -16 53 -8 6 -7 7 3 4 11 -2 15
-18 16 -53z m394 -94 c0 -118 -2 -140 -15 -140 -13 0 -15 22 -15 140 0 118 2
140 15 140 13 0 15 -22 15 -140z m-980 123 c0 -5 -7 -17 -15 -27 -20 -27 -19
-29 15 -49 34 -21 44 -17 65 23 15 28 14 30 -12 44 l-28 15 33 1 32 0 0 -205
0 -205 -75 0 -75 0 0 205 0 205 30 0 c17 0 30 -3 30 -7z m560 -192 l0 -199
-25 -6 c-14 -4 -25 -11 -25 -16 0 -6 -53 -10 -135 -10 -103 0 -134 3 -133 13
2 8 -18 13 -69 15 l-73 3 0 199 0 200 230 0 230 0 0 -199z m1800 -51 l0 -130
-661 2 -661 3 -1 128 -2 127 663 0 662 0 0 -130z m316 -190 l24 0 0 -360 0
-360 -70 0 -70 0 0 360 0 360 25 0 25 0 0 -352 0 -353 25 0 25 0 0 347 c0 341
0 346 -20 341 -14 -4 -20 0 -20 12 0 12 5 15 16 11 9 -3 27 -6 40 -6z m-2170
-41 c-9 -54 -26 -86 -72 -133 -40 -41 -104 -75 -141 -76 -23 0 -23 2 -23 125
l0 125 121 0 122 0 -7 -41z m654 -105 c0 -124 -2 -135 -17 -132 -16 3 -18 19
-21 136 -2 127 -2 132 18 132 19 0 20 -6 20 -136z m1238 4 c-3 -117 -5 -133
-20 -136 -16 -3 -18 8 -18 132 0 130 1 136 20 136 20 0 20 -5 18 -132z m229
-385 c-1 -93 -3 -17 -3 167 0 184 2 260 3 168 2 -93 2 -243 0 -335z m20 0 c-1
-93 -3 -17 -3 167 0 184 2 260 3 168 2 -93 2 -243 0 -335z m-123 430 c17 -35
6 -69 -29 -85 -22 -10 -30 -8 -53 9 -33 25 -38 47 -18 78 24 37 80 35 100 -2z
m-1056 -95 l-3 -103 -142 -3 -143 -3 0 106 0 105 145 0 146 0 -3 -102z m302
-3 l0 -105 -145 0 -145 0 0 105 0 105 145 0 145 0 0 -105z m300 0 l0 -105
-145 0 -145 0 0 105 0 105 145 0 145 0 0 -105z m268 -102 l-3 -208 -122 -3
-123 -3 0 211 0 210 125 0 125 0 -2 -207z m176 -29 c36 -36 10 -104 -40 -104
-30 0 -66 46 -58 74 13 44 68 61 98 30z m186 -719 l0 -285 -70 0 -70 0 0 285
0 285 70 0 70 0 0 -285z m-2613 -232 c-2 -38 -3 -7 -3 67 0 74 1 105 3 68 2
-38 2 -98 0 -135z m108 170 c72 -36 128 -113 141 -194 6 -38 5 -42 -10 -36
-10 4 -65 7 -122 7 l-104 0 0 126 0 126 33 -7 c17 -4 46 -14 62 -22z m793 -33
c29 -11 57 -18 63 -15 5 4 9 2 9 -4 0 -13 37 -24 52 -15 9 6 5 10 -12 15 -14
4 50 7 143 8 l167 1 0 -61 c0 -54 -2 -60 -17 -54 -98 39 -267 94 -275 89 -6
-4 2 -13 18 -21 40 -19 15 -12 -96 27 -52 18 -99 37 -104 42 -14 12 -7 10 52
-12z m148 -76 c98 -37 195 -68 214 -69 19 -2 41 -3 48 -4 6 -1 12 -10 12 -21
0 -19 -7 -20 -263 -20 -145 0 -266 2 -268 4 -2 2 -3 43 -1 90 l3 86 38 0 c21
0 114 -28 217 -66z m1302 19 c-21 -2 -57 -2 -80 0 -24 2 -7 4 37 4 44 0 63 -2
43 -4z m22 -43 c0 -18 -7 -20 -60 -20 -53 0 -60 2 -60 20 0 18 7 20 60 20 53
0 60 -2 60 -20z m80 -182 l0 -148 -150 0 -150 0 0 149 0 148 150 0 150 -1 0
-148z m-1086 87 c4 -11 22 -15 76 -15 l70 0 0 -175 c0 -149 -2 -175 -15 -175
-13 0 -15 25 -15 165 l0 165 -570 0 -570 0 -1 -32 c-1 -18 -2 -73 -3 -123 -2
-139 -21 -116 -24 30 -1 72 -7 125 -12 125 -6 0 -10 5 -10 10 0 6 82 10 225
10 143 0 225 4 225 10 0 6 7 10 15 10 8 0 15 -4 15 -10 0 -6 102 -10 285 -10
247 0 285 2 285 15 0 8 4 15 9 15 5 0 11 -7 15 -15z m-1114 -31 c0 -9 9 -18
20 -21 19 -5 20 -14 20 -123 0 -132 4 -150 31 -150 18 0 19 -9 19 -129 0 -127
0 -130 -22 -133 -22 -3 -23 -7 -26 -139 l-3 -135 -29 4 c-30 4 -30 4 -31 -49
l-2 -54 -8 61 c-4 34 -16 79 -27 100 -41 79 -137 143 -214 144 l-38 0 0 -102
0 -103 -55 0 -55 0 0 403 0 402 76 0 c67 0 76 2 81 20 5 19 14 20 134 20 111
0 129 -2 129 -16z m2360 -69 l0 -85 -67 0 -68 0 3 85 3 85 65 0 64 0 0 -85z
m-1920 -60 l0 -105 -170 0 -170 0 0 105 0 105 170 0 170 0 0 -105z m330 93 c0
-9 -21 -13 -72 -13 l-73 0 0 -68 c0 -38 -4 -67 -10 -67 -6 0 -8 28 -5 73 l5
73 -65 -4 c-95 -5 -92 -3 -88 -77 1 -36 0 -65 -4 -65 -5 0 -8 36 -8 80 l0 80
160 0 c121 0 160 -3 160 -12z m253 -90 l-2 -103 -115 -3 -116 -3 0 106 0 105
118 0 117 0 -2 -102z m177 -3 l0 -105 -80 0 -80 0 0 105 0 105 80 0 80 0 0
-105z m-639 61 c-10 -11 -8 -19 5 -35 10 -11 21 -18 26 -15 4 3 8 -9 8 -25 l0
-31 -65 0 -65 0 0 60 0 60 51 0 c43 0 50 -2 40 -14z m194 1 c9 -29 11 -117 3
-117 -5 0 -7 3 -5 8 3 4 -24 5 -59 4 l-64 -4 0 31 c0 19 5 30 13 29 6 -2 12 4
12 12 0 8 -6 14 -12 13 -7 -2 -13 6 -13 16 0 17 8 19 61 19 37 0 62 -4 64 -11z
m555 -142 c0 -90 -4 -145 -10 -145 -6 0 -10 55 -10 145 0 90 4 145 10 145 6 0
10 -55 10 -145z m1050 -265 l0 -300 -40 0 c-23 0 -40 5 -40 11 0 6 9 9 20 6
20 -5 20 0 20 281 l0 287 -25 0 -25 0 0 -292 0 -293 -25 0 -25 0 0 300 0 300
70 0 70 0 0 -300z m-1580 251 c0 -22 6 -32 22 -37 12 -3 108 -3 215 1 l193 7
0 -52 c0 -50 1 -51 26 -48 l27 3 1 -123 1 -122 -27 0 -28 0 0 -122 c0 -67 -3
-118 -6 -115 -4 3 -6 58 -6 122 l0 115 -96 1 c-53 1 -150 0 -214 -1 -80 -1
-118 2 -118 9 0 7 -34 11 -100 11 -55 0 -100 -4 -100 -9 0 -5 -101 -9 -224
-10 -188 -1 -225 1 -236 14 -11 13 3 15 124 15 l136 0 0 25 c0 48 -39 130 -82
172 -51 48 -91 70 -146 79 -30 5 -39 10 -35 21 5 12 24 14 92 13 47 -2 123 -2
169 -1 l82 1 0 30 0 30 165 0 165 0 0 -29z m1338 -48 l-3 -58 -55 0 -55 0 -3
58 -3 57 61 0 61 0 -3 -57z m169 -335 c-1 -73 -3 -14 -3 132 0 146 2 205 3
133 2 -73 2 -193 0 -265z m20 0 c-1 -73 -3 -14 -3 132 0 146 2 205 3 133 2
-73 2 -193 0 -265z m-2096 281 c68 -34 123 -103 140 -176 l7 -33 -129 0 -129
0 0 120 0 121 38 -7 c20 -4 53 -15 73 -25z m1892 -26 c-24 -2 -62 -2 -85 0
-24 2 -5 4 42 4 47 0 66 -2 43 -4z m-1805 -200 c-38 -2 -98 -2 -135 0 -38 2
-7 3 67 3 74 0 105 -1 68 -3z m-210 -150 c-2 -82 -7 -118 -15 -121 -10 -3 -13
25 -13 117 0 102 2 121 15 121 13 0 15 -17 13 -117z m1509 -65 c-2 -35 -3 -9
-3 57 0 66 1 94 3 63 2 -32 2 -86 0 -120z m120 136 c39 -22 103 -89 103 -106
0 -5 -43 -8 -95 -8 l-95 0 0 -40 c0 -22 -4 -40 -10 -40 -6 0 -10 45 -10 116
l0 116 33 -7 c17 -4 51 -18 74 -31z m373 -79 l0 -115 -35 0 c-34 0 -35 1 -35
40 l0 39 -76 3 -76 3 42 48 c41 47 79 72 130 88 50 15 50 16 50 -106z m17 -57
c-2 -35 -3 -9 -3 57 0 66 1 94 3 63 2 -32 2 -86 0 -120z m-1824 155 c-35 -2
-91 -2 -125 0 -35 2 -7 3 62 3 69 0 97 -1 63 -3z m486 -25 c0 -31 -1 -31 -11
-11 -6 12 -17 24 -25 27 -19 8 -53 -11 -53 -29 0 -9 -10 -15 -25 -15 -15 0
-25 6 -25 14 0 23 -29 27 -47 6 -24 -28 -33 -25 -33 10 l0 30 110 0 110 0 -1
-32z m-229 -2 c0 -23 -2 -24 -90 -24 -88 0 -90 1 -90 24 0 24 2 24 90 24 88 0
90 0 90 -24z m650 -1 l0 -24 -200 0 -200 0 0 25 0 24 200 0 200 0 0 -25z m70
-90 l0 -115 145 0 c90 0 145 -4 145 -10 0 -5 -16 -10 -35 -10 l-35 0 0 -395 0
-395 369 0 370 0 7 57 c4 31 5 224 2 430 l-5 373 69 0 68 0 0 -490 0 -490
-945 -2 -945 -3 0 385 c0 225 -4 391 -10 400 -8 13 -45 15 -235 15 l-225 0 0
68 0 67 615 0 615 0 0 115 c0 96 3 115 15 115 12 0 15 -19 15 -115z m-920 5
l0 -100 -120 0 -120 0 0 100 0 100 120 0 120 0 0 -100z m-535 66 c28 -13 64
-39 82 -57 55 -59 98 -191 57 -175 -9 3 -63 6 -120 6 l-104 0 0 125 c0 143 -1
142 85 101z m943 7 c2 -9 -7 -13 -27 -13 -30 0 -39 9 -24 24 11 10 46 3 51
-11z m22 -98 c0 -68 -2 -75 -20 -75 -17 0 -20 7 -20 50 l0 50 -70 0 -70 0 0
-46 c0 -27 4 -43 10 -39 6 3 10 19 10 36 0 29 1 29 55 29 l55 0 0 -40 0 -40
-85 0 -85 0 0 75 0 75 110 0 110 0 0 -75z m-230 -5 l0 -70 -92 0 -93 0 3 70 4
70 89 0 89 0 0 -70z m640 0 l0 -70 -200 0 -200 0 0 70 0 70 200 0 200 0 0 -70z
m830 -37 l0 -33 -185 0 -185 0 0 33 0 32 185 0 185 0 0 -32z m102 -68 c2 -16
12 -21 51 -23 90 -6 47 -22 -58 -22 l-105 0 0 -205 0 -205 -120 0 -121 0 3
-160 c3 -146 1 -160 -14 -160 -15 0 -18 14 -20 112 l-3 113 -112 3 -113 3 0
89 0 90 94 0 94 0 4 80 c2 44 2 116 0 160 l-4 80 -94 0 c-56 0 -94 4 -94 10 0
6 13 10 29 10 41 0 61 9 61 29 0 14 25 16 260 16 252 0 259 -1 262 -20z m78
10 c0 -9 -9 -15 -25 -15 -29 0 -34 16 -7 23 30 8 32 7 32 -8z m-520 -215 l0
-150 -85 0 -85 0 0 150 0 150 85 0 85 0 0 -150z m514 144 c14 -5 16 -46 16
-351 0 -285 -2 -347 -14 -359 -21 -21 -152 -20 -160 2 -8 21 -8 699 1 707 8 9
136 9 157 1z m-184 -444 c0 -46 -10 -49 -76 -24 -39 15 -45 15 -75 0 -54 -27
-69 -22 -69 24 l0 40 110 0 110 0 0 -40z m0 -165 l0 -115 -110 0 -110 0 0 115
0 115 110 0 110 0 0 -115z m-289 101 c2 -2 2 -34 1 -70 l-4 -66 -39 0 c-22 0
-39 -5 -39 -11 0 -7 17 -10 45 -7 46 3 46 3 43 -27 l-3 -30 -107 -2 -108 -2 0
33 0 34 45 -6 c30 -3 45 -1 45 7 0 6 -18 11 -45 11 l-45 0 0 70 0 70 103 0
c57 0 106 -2 108 -4z"/>
<path d="M254 5905 c-4 -10 -1 -21 7 -26 20 -12 34 -5 34 17 0 24 -33 31 -41
9z"/>
<path d="M2064 6197 c-3 -8 -4 -36 -2 -63 l3 -49 113 -3 113 -3 -3 63 -3 63
-108 3 c-85 2 -108 0 -113 -11z m216 -52 l0 -56 -102 3 -103 3 -3 39 c-6 65
-4 66 108 66 l100 0 0 -55z"/>
<path d="M2304 6197 c-3 -8 -4 -36 -2 -63 l3 -49 110 0 110 0 0 60 0 60 -108
3 c-85 2 -108 0 -113 -11z m216 -52 l0 -55 -105 0 -105 0 0 55 0 55 105 0 105
0 0 -55z"/>
<path d="M2522 4993 l-2 -93 -50 0 -50 0 0 75 c0 45 -4 75 -10 75 -7 0 -10
-29 -8 -77 l3 -78 58 -3 c42 -2 59 1 63 11 2 7 3 52 1 98 l-3 84 -2 -92z"/>
<path d="M2404 4867 c-3 -8 -4 -49 -2 -93 l3 -79 60 0 60 0 3 93 3 92 -61 0
c-41 0 -62 -4 -66 -13z m116 -82 l0 -85 -50 0 -50 0 0 85 0 85 50 0 50 0 0
-85z"/>
<path d="M715 4945 c23 -22 25 -32 25 -109 0 -47 -4 -88 -10 -91 -5 -3 -10
-12 -10 -18 0 -7 7 -3 15 7 11 14 15 46 15 106 0 77 -2 89 -23 108 -32 30 -42
28 -12 -3z"/>
<path d="M227 4953 c-4 -3 -7 -21 -7 -40 0 -18 -5 -33 -11 -33 -5 0 -7 5 -4
10 3 6 1 10 -4 10 -12 0 -12 1 -15 -58 -1 -25 4 -51 12 -60 13 -16 13 -16 8 1
-3 9 -1 17 4 17 5 0 10 -17 12 -37 l3 -38 224 -3 c274 -3 261 -9 261 119 0
124 10 119 -261 119 -118 0 -219 -3 -222 -7z m455 -20 c14 -13 18 -31 18 -94
0 -114 11 -109 -251 -109 l-219 0 0 50 c0 49 1 50 29 50 16 0 36 -7 45 -15 8
-8 28 -15 45 -15 29 0 31 3 31 35 0 33 -2 35 -35 35 -19 0 -35 -4 -35 -10 0
-5 -18 -10 -40 -10 l-40 0 0 43 c0 24 3 47 7 50 3 4 101 7 216 7 182 0 213 -2
229 -17z m-312 -98 c0 -20 -5 -25 -25 -25 -31 0 -32 8 -2 19 l22 9 -25 10 -25
11 28 0 c22 1 27 -3 27 -24z"/>
<path d="M1884 4144 l-52 -24 20 -43 c11 -23 21 -43 23 -45 3 -4 115 47 115
53 0 13 -41 85 -48 84 -4 0 -30 -12 -58 -25z m66 -20 c0 -8 -16 -22 -35 -30
-42 -17 -45 -17 -45 -1 0 7 15 21 33 30 41 20 47 20 47 1z"/>
<path d="M1360 3616 c0 -9 -7 -16 -15 -16 -16 0 -21 -35 -6 -44 5 -4 7 3 4 14
-3 12 0 20 6 20 7 0 9 -5 6 -11 -5 -7 8 -9 37 -7 38 3 43 6 43 28 0 22 -5 25
-37 28 -29 2 -38 0 -38 -12z m29 -13 c1 10 6 15 11 12 6 -4 8 -11 5 -16 -4 -5
-2 -9 4 -9 5 0 12 8 14 18 4 13 5 11 6 -5 1 -19 -4 -23 -29 -23 -25 0 -30 4
-29 23 0 21 1 21 9 2 8 -18 9 -18 9 -2z"/>
<path d="M1450 3597 c0 -22 6 -37 16 -41 8 -3 13 -2 10 3 -3 5 1 11 9 15 9 3
15 0 15 -9 0 -8 4 -15 9 -15 16 0 31 27 28 51 -3 20 -10 24 -45 27 -42 3 -42
3 -42 -31z m50 10 c0 -7 -9 -18 -20 -25 -11 -7 -20 -8 -20 -3 0 6 5 13 11 17
8 4 7 9 -2 15 -10 6 -8 9 9 9 12 0 22 -6 22 -13z"/>
<path d="M1543 3613 c0 -7 4 -13 9 -13 4 0 8 -9 8 -19 0 -11 4 -22 8 -25 4 -2
6 11 4 30 -3 26 -1 34 12 34 11 0 16 -9 16 -29 0 -18 6 -31 18 -36 14 -5 15
-4 5 6 -18 18 -16 46 4 57 12 7 3 10 -33 9 -35 0 -51 -4 -51 -14z"/>
<path d="M227 4003 c-4 -3 -7 -21 -7 -40 0 -23 -5 -33 -15 -33 -8 0 -15 -5
-15 -11 0 -5 4 -8 9 -4 5 3 13 1 16 -5 4 -6 1 -9 -7 -8 -7 2 -13 -4 -13 -12 0
-8 6 -14 13 -12 8 1 11 -2 7 -8 -3 -6 -11 -8 -16 -5 -5 4 -9 1 -9 -4 0 -6 6
-11 14 -11 10 0 16 -13 18 -37 l3 -38 219 -3 c276 -3 266 -8 266 118 0 125 10
120 -261 120 -118 0 -219 -3 -222 -7z m455 -20 c14 -13 18 -31 18 -91 0 -116
10 -112 -252 -112 l-218 0 0 50 c0 43 3 50 20 50 11 0 20 5 20 10 0 6 -9 10
-20 10 -17 0 -20 7 -20 43 0 24 3 47 7 50 3 4 101 7 216 7 182 0 213 -2 229
-17z"/>
<path d="M757 2954 c-4 -4 -7 -18 -7 -30 0 -13 -4 -26 -10 -29 -13 -8 -14
-827 -1 -840 5 -6 11 -21 13 -35 l3 -25 155 0 155 0 3 28 c2 15 8 27 13 27 5
0 9 168 9 425 0 257 -4 425 -9 425 -5 0 -11 12 -13 28 l-3 27 -151 3 c-82 1
-153 -1 -157 -4z m298 -29 c0 -19 -7 -20 -145 -20 -143 0 -145 0 -148 23 l-3
23 148 -3 c140 -3 148 -4 148 -23z m-75 -240 l0 -205 -120 0 -120 0 0 198 c0
109 3 202 7 205 3 4 57 7 120 7 l113 0 0 -205z m90 -210 l0 -415 -40 0 -40 0
0 415 0 415 40 0 40 0 0 -415z m-90 -210 l0 -206 -117 3 -118 3 -3 203 -2 202
120 0 120 0 0 -205z m75 -240 c0 -19 -8 -20 -147 -23 -139 -2 -148 -1 -148 16
0 10 3 22 7 26 4 3 70 5 147 4 133 -3 141 -4 141 -23z"/>
<path d="M263 2923 l77 -4 0 -302 0 -302 -75 1 c-41 1 -75 -2 -75 -7 0 -6 66
-8 153 -7 l152 3 3 103 3 102 59 0 c88 0 100 15 100 128 0 109 -11 122 -100
122 l-59 0 -3 83 -3 82 -155 1 c-85 0 -120 -1 -77 -3z m227 -303 l0 -300 -54
0 c-30 0 -61 -3 -70 -6 -14 -6 -16 25 -16 300 l0 306 70 0 70 0 0 -300z m130
120 c0 -6 -27 -10 -60 -10 -33 0 -60 4 -60 10 0 6 27 10 60 10 33 0 60 -4 60
-10z m-20 -105 l0 -85 -50 0 -50 0 0 85 0 85 50 0 50 0 0 -85z m45 0 c0 -74
-2 -85 -17 -85 -16 0 -18 11 -18 85 0 74 2 85 18 85 15 0 17 -11 17 -85z m-52
-102 c-18 -2 -48 -2 -65 0 -18 2 -4 4 32 4 36 0 50 -2 33 -4z"/>
<path d="M250 2761 c0 -11 -4 -23 -10 -26 -13 -8 -13 -222 0 -230 6 -3 10 -15
10 -26 0 -10 5 -19 10 -19 6 0 10 60 10 160 0 100 -4 160 -10 160 -5 0 -10 -9
-10 -19z m-3 -193 c-2 -29 -3 -6 -3 52 0 58 1 81 3 53 2 -29 2 -77 0 -105z"/>
<path d="M1843 2715 c-43 -19 -44 -53 -3 -83 17 -13 30 -31 30 -42 0 -11 7
-20 15 -20 8 0 15 9 15 20 0 12 5 17 13 14 8 -3 26 0 42 6 15 6 31 8 34 4 3
-4 0 -9 -6 -11 -18 -6 -16 -23 2 -23 9 0 15 9 15 23 0 12 11 35 25 51 30 35
30 38 7 59 -24 21 -142 23 -189 2z m107 -20 c7 -8 10 -25 6 -40 -9 -34 -43
-34 -52 0 -12 48 18 74 46 40z"/>
<path d="M2114 2710 c-24 -9 -38 -36 -27 -53 4 -7 17 -20 29 -30 13 -9 24 -27
26 -39 4 -25 28 -37 28 -14 0 22 65 22 74 0 7 -19 26 -9 26 15 0 10 14 30 30
44 35 32 37 40 11 66 -16 16 -33 19 -98 19 -43 0 -87 -4 -99 -8z m67 -14 c-17
-20 -10 -67 11 -79 35 -23 68 49 36 81 -9 9 -7 12 9 12 39 0 73 -19 73 -40 0
-13 -7 -20 -19 -20 -21 0 -37 -15 -24 -23 5 -2 3 -2 -4 -1 -6 2 -17 -4 -23
-12 -16 -18 -54 -18 -70 1 -7 8 -16 12 -21 9 -5 -3 -8 0 -7 8 2 7 -7 14 -19
16 -15 2 -23 10 -23 23 0 21 29 37 69 38 19 1 21 -2 12 -13z"/>
<path d="M1930 1780 l0 -301 143 3 142 3 3 298 2 297 -145 0 -145 0 0 -300z
m263 278 c17 -18 17 -538 0 -555 -16 -17 -224 -18 -241 -1 -18 18 -17 533 1
553 16 19 223 21 240 3z"/>
<path d="M240 3415 l0 -65 50 0 50 0 0 65 0 65 -50 0 -50 0 0 -65z m60 0 c0
-33 -4 -45 -15 -45 -11 0 -15 12 -15 45 0 33 4 45 15 45 11 0 15 -12 15 -45z"/>
<path d="M258 3313 c-13 -3 -16 -11 -11 -36 8 -42 12 -45 56 -40 28 4 37 9 33
20 -3 8 -6 26 -6 39 0 20 -5 24 -27 23 -16 -1 -36 -3 -45 -6z"/>
<path d="M563 3563 c-4 -9 -1 -19 5 -21 8 -2 12 -27 12 -68 l0 -64 70 0 70 0
0 64 c0 41 4 66 12 68 6 2 9 12 5 21 -5 14 -21 17 -87 17 -66 0 -82 -3 -87
-17z m162 -3 c4 -6 -23 -10 -75 -10 -52 0 -79 4 -75 10 3 6 37 10 75 10 38 0
72 -4 75 -10z m-15 -80 l0 -60 -60 0 -60 0 0 60 0 60 60 0 60 0 0 -60z"/>
<path d="M2870 2145 l0 -270 25 0 25 0 0 270 0 270 -25 0 -25 0 0 -270z m17
-127 c-1 -73 -3 -16 -3 127 0 143 2 203 3 133 2 -70 2 -187 0 -260z m20 -1
c-1 -67 -3 -9 -3 128 0 138 2 192 3 122 2 -71 2 -183 0 -250z"/>
<path d="M1470 1701 c0 -33 89 -22 90 10 0 10 -34 5 -42 -6 -5 -6 -8 -5 -8 3
0 6 -9 12 -20 12 -13 0 -20 -7 -20 -19z"/>
<path d="M1223 823 l-23 -4 0 -325 0 -324 344 0 345 0 3 108 c2 59 2 204 0
323 l-4 217 -30 6 c-34 7 -600 6 -635 -1z m646 -325 l-1 -308 -324 0 -324 0 0
308 0 307 325 0 325 0 -1 -307z"/>
<path d="M2443 386 c-39 -18 -53 -43 -53 -95 0 -82 102 -123 167 -67 23 20 28
32 28 70 0 78 -70 124 -142 92z m112 -38 c32 -38 32 -69 -1 -107 -52 -62 -154
-28 -154 52 0 88 98 123 155 55z"/>
<path d="M2195 268 c4 -29 9 -55 11 -57 8 -8 12 4 19 57 6 49 6 52 -15 52 -21
0 -21 -3 -15 -52z"/>
</g>
</svg>
