<?xml version="1.0" encoding="UTF-8" standalone="no"?>
<!-- Uploaded to: SVG Repo, www.svgrepo.com, Generator: SVG Repo Mixer Tools -->

<svg
   width="716.66736"
   height="716.66736"
   viewBox="0 0 21.500021 21.500021"
   fill="none"
   version="1.1"
   id="svg4"
   sodipodi:docname="socket_idle.svg"
   inkscape:version="1.4.2 (f4327f4, 2025-05-13)"
   xmlns:inkscape="http://www.inkscape.org/namespaces/inkscape"
   xmlns:sodipodi="http://sodipodi.sourceforge.net/DTD/sodipodi-0.dtd"
   xmlns="http://www.w3.org/2000/svg"
   xmlns:svg="http://www.w3.org/2000/svg">
  <defs
     id="defs4" />
  <sodipodi:namedview
     id="namedview4"
     pagecolor="#ffffff"
     bordercolor="#000000"
     borderopacity="0.25"
     inkscape:showpageshadow="2"
     inkscape:pageopacity="0.0"
     inkscape:pagecheckerboard="0"
     inkscape:deskcolor="#d1d1d1"
     inkscape:zoom="1.06875"
     inkscape:cx="358.83041"
     inkscape:cy="357.89474"
     inkscape:window-width="1920"
     inkscape:window-height="1057"
     inkscape:window-x="-8"
     inkscape:window-y="-8"
     inkscape:window-maximized="1"
     inkscape:current-layer="svg4" />
  <path
     opacity="0.5"
     d="m 0.75001021,10.75001 c 0,-4.7140498 0,-7.0710698 1.46446999,-8.5355298 1.46446,-1.46446999 3.82148,-1.46446999 8.5355298,-1.46446999 4.714,0 7.0711,0 8.5355,1.46446999 1.4645,1.46446 1.4645,3.82148 1.4645,8.5355298 0,4.714 0,7.0711 -1.4645,8.5355 -1.4644,1.4645 -3.8215,1.4645 -8.5355,1.4645 -4.7140498,0 -7.0710698,0 -8.5355298,-1.4645 -1.46446999,-1.4644 -1.46446999,-3.8215 -1.46446999,-8.5355 z"
     stroke="#1C274C"
     stroke-width="1.5"
     id="path1"
     style="fill:#000006;fill-opacity:1;stroke:#1c274c;stroke-opacity:1" />
  <circle
     cx="10.75001"
     cy="10.75001"
     r="6"
     stroke="#1c274c"
     stroke-width="1.5"
     id="circle1"
     style="fill:#00d4ef;fill-opacity:0.74117601" />
  <path
     opacity="0.5"
     d="m 10.75001,16.75011 v -1.5001"
     stroke="#1c274c"
     stroke-width="1.5"
     stroke-linecap="round"
     id="path2" />
  <path
     opacity="0.5"
     d="m 10.75001,6.2500102 v -1.5"
     stroke="#1c274c"
     stroke-width="1.5"
     stroke-linecap="round"
     id="path3" />
  <circle
     cx="12.75001"
     cy="10.75001"
     r="1"
     fill="#1c274c"
     id="circle3" />
  <circle
     cx="8.7500105"
     cy="10.75001"
     r="1"
     fill="#1c274c"
     id="circle4" />
</svg>
