<?xml version="1.0" encoding="UTF-8" standalone="no"?>
<!-- Uploaded to: SVG Repo, www.svgrepo.com, Generator: SVG Repo Mixer Tools -->

<svg
   width="800px"
   height="800px"
   viewBox="0 0 24 24"
   version="1.1"
   id="svg2"
   sodipodi:docname="presence-on.svg"
   inkscape:version="1.4.2 (f4327f4, 2025-05-13)"
   xmlns:inkscape="http://www.inkscape.org/namespaces/inkscape"
   xmlns:sodipodi="http://sodipodi.sourceforge.net/DTD/sodipodi-0.dtd"
   xmlns="http://www.w3.org/2000/svg"
   xmlns:svg="http://www.w3.org/2000/svg">
  <defs
     id="defs2" />
  <sodipodi:namedview
     id="namedview2"
     pagecolor="#ffffff"
     bordercolor="#000000"
     borderopacity="0.25"
     inkscape:showpageshadow="2"
     inkscape:pageopacity="0.0"
     inkscape:pagecheckerboard="0"
     inkscape:deskcolor="#d1d1d1"
     inkscape:zoom="1.06875"
     inkscape:cx="400"
     inkscape:cy="400"
     inkscape:window-width="1920"
     inkscape:window-height="1057"
     inkscape:window-x="-8"
     inkscape:window-y="-8"
     inkscape:window-maximized="1"
     inkscape:current-layer="svg2" />
  <path
     d="M12 9.137a7.062 7.062 0 0 1 4.944 2.008l-.696.718a6.092 6.092 0 0 0-8.496 0l-.696-.718A7.062 7.062 0 0 1 12 9.137zm7.778-.815a11.012 11.012 0 0 0-15.556 0l.707.707a10.011 10.011 0 0 1 14.142 0zM1.394 5.494L2.1 6.2a14.017 14.017 0 0 1 19.798 0l.707-.707a15.016 15.016 0 0 0-21.212 0zM21 19.02V22H3v-2.98A3.024 3.024 0 0 1 6.02 16H9a3 3 0 0 1 6 0h2.98A3.024 3.024 0 0 1 21 19.02zm-1 0A2.022 2.022 0 0 0 17.98 17H6.02A2.022 2.022 0 0 0 4 19.02V21h16zM10 16h4a2 2 0 0 0-4 0z"
     id="path1"
     style="stroke:#268cf0;stroke-opacity:0.55737704" />
  <path
     fill="none"
     d="M0 0h24v24H0z"
     id="path2" />
</svg>
